<?xml version="1.0" encoding="UTF-8" standalone="no"?>
<!--?xml version="1.0" encoding="utf-8"?-->

<!-- Generator: Adobe Illustrator 19.1.1, SVG Export Plug-In . SVG Version: 6.00 Build 0)  -->

<svg
   xmlns:dc="http://purl.org/dc/elements/1.1/"
   xmlns:cc="http://creativecommons.org/ns#"
   xmlns:rdf="http://www.w3.org/1999/02/22-rdf-syntax-ns#"
   xmlns:svg="http://www.w3.org/2000/svg"
   xmlns="http://www.w3.org/2000/svg"
   xmlns:sodipodi="http://sodipodi.sourceforge.net/DTD/sodipodi-0.dtd"
   xmlns:inkscape="http://www.inkscape.org/namespaces/inkscape"
   version="1.1"
   id="_x31_0"
   x="0px"
   y="0px"
   viewBox="0 0 512 512"
   style="width: 256px; height: 256px; opacity: 1;"
   xml:space="preserve"
   sodipodi:docname="ac.svg"
   inkscape:version="0.92.2 2405546, 2018-03-11"><metadata
   id="metadata31"><rdf:RDF><cc:Work
       rdf:about=""><dc:format>image/svg+xml</dc:format><dc:type
         rdf:resource="http://purl.org/dc/dcmitype/StillImage" /></cc:Work></rdf:RDF></metadata><defs
   id="defs29" /><sodipodi:namedview
   pagecolor="#ffffff"
   bordercolor="#666666"
   borderopacity="1"
   objecttolerance="10"
   gridtolerance="10"
   guidetolerance="10"
   inkscape:pageopacity="0"
   inkscape:pageshadow="2"
   inkscape:window-width="926"
   inkscape:window-height="990"
   id="namedview27"
   showgrid="false"
   inkscape:zoom="0.23046875"
   inkscape:cx="49.314446"
   inkscape:cy="180.86969"
   inkscape:window-x="20"
   inkscape:window-y="50"
   inkscape:window-maximized="0"
   inkscape:current-layer="_x31_0" />
<style
   type="text/css"
   id="style2">
	.st0{fill:#374149;}
</style>
<g
   id="g24"
   transform="matrix(0.73526647,0,0,0.73526647,67.771783,67.771783)"
   style="fill:#131822;fill-opacity:1">
	<path
   class="st0"
   d="m 215.033,381.05 c -1.746,3.555 2.844,6.887 5.687,4.043 L 325.927,279.667 c 1.805,-1.805 0.492,-4.867 -2.023,-4.867 h -45.637 l -24.641,-0.086 42.461,-64.68 c 1.203,-1.91 -0.164,-4.426 -2.406,-4.426 H 249.52 c -1.038,0 -1.965,0.546 -2.511,1.476 l -55.203,96.465 c -1.09,1.91 0.274,4.262 2.461,4.262 h 39.531 l 17.004,0.07 z"
   id="path4"
   inkscape:connector-curvature="0"
   style="fill:#131822;fill-opacity:1" />
	<path
   class="st0"
   d="m 187.217,159.317 h -41.809 c -3.446,0 -6.18,2.734 -6.18,6.175 v 41.813 c 0,5.465 6.618,8.254 10.551,4.316 l 41.754,-41.754 c 3.883,-3.937 1.149,-10.55 -4.316,-10.55 z"
   id="path6"
   inkscape:connector-curvature="0"
   style="fill:#131822;fill-opacity:1" />
	<path
   class="st0"
   d="m 148.912,57.637 h 49.301 c 2.504,0 4.535,-2.031 4.535,-4.535 V 39.058 c 0,-2.504 -2.031,-4.535 -4.535,-4.535 h -49.301 c -2.508,0 -4.539,2.031 -4.539,4.535 v 14.043 c 0,2.505 2.031,4.536 4.539,4.536 z"
   id="path8"
   inkscape:connector-curvature="0"
   style="fill:#131822;fill-opacity:1" />
	<path
   class="st0"
   d="m 148.912,89.379 h 49.301 c 2.504,0 4.535,-2.028 4.535,-4.535 V 70.805 c 0,-2.504 -2.031,-4.535 -4.535,-4.535 h -49.301 c -2.508,0 -4.539,2.031 -4.539,4.535 v 14.039 c 0,2.507 2.031,4.535 4.539,4.535 z"
   id="path10"
   inkscape:connector-curvature="0"
   style="fill:#131822;fill-opacity:1" />
	<path
   class="st0"
   d="M 188.154,14.074 C 188.154,6.301 181.853,0 174.08,0 h -1.039 c -7.774,0 -14.07,6.301 -14.07,14.074 v 13.519 h 29.183 V 14.074 Z"
   id="path12"
   inkscape:connector-curvature="0"
   style="fill:#131822;fill-opacity:1" />
	<path
   class="st0"
   d="m 313.803,57.637 h 49.305 c 2.504,0 4.531,-2.031 4.531,-4.535 V 39.058 c 0,-2.504 -2.027,-4.535 -4.531,-4.535 h -49.305 c -2.508,0 -4.535,2.031 -4.535,4.535 v 14.043 c 0,2.505 2.027,4.536 4.535,4.536 z"
   id="path14"
   inkscape:connector-curvature="0"
   style="fill:#131822;fill-opacity:1" />
	<path
   class="st0"
   d="m 313.803,89.379 h 49.305 c 2.504,0 4.531,-2.028 4.531,-4.535 V 70.805 c 0,-2.504 -2.027,-4.535 -4.531,-4.535 h -49.305 c -2.508,0 -4.535,2.031 -4.535,4.535 v 14.039 c 0,2.507 2.027,4.535 4.535,4.535 z"
   id="path16"
   inkscape:connector-curvature="0"
   style="fill:#131822;fill-opacity:1" />
	<path
   class="st0"
   d="M 353.049,14.074 C 353.049,6.301 346.748,0 338.975,0 h -1.043 c -7.77,0 -14.07,6.301 -14.07,14.074 V 27.593 H 353.05 V 14.074 Z"
   id="path18"
   inkscape:connector-curvature="0"
   style="fill:#131822;fill-opacity:1" />
	<path
   class="st0"
   d="m 118.686,428.164 v -0.004 h 0.16 V 144.012 c 0,-2.84 2.347,-5.192 5.246,-5.192 h 263.871 c 2.894,0 5.191,2.352 5.191,5.192 v 282.258 1.73 0 0.16 h 32.794 V 144.012 c 0,-20.93 -17.051,-37.981 -37.985,-37.981 H 124.092 c -20.988,0 -38.038,17.051 -38.038,37.981 V 428.16 h 32.534 z"
   id="path20"
   inkscape:connector-curvature="0"
   style="fill:#131822;fill-opacity:1" />
	<path
   class="st0"
   d="M 450.815,444.504 H 61.182 c -9.562,0 -17.379,7.762 -17.379,17.379 V 512 h 424.394 v -50.117 c 0,-9.617 -7.761,-17.379 -17.382,-17.379 z"
   id="path22"
   inkscape:connector-curvature="0"
   style="fill:#131822;fill-opacity:1" />
</g>
</svg>