<?xml version="1.0" encoding="UTF-8" standalone="no"?>
<!--?xml version="1.0" encoding="utf-8"?-->

<!-- Generator: Adobe Illustrator 18.0.0, SVG Export Plug-In . SVG Version: 6.00 Build 0)  -->

<svg
   xmlns:dc="http://purl.org/dc/elements/1.1/"
   xmlns:cc="http://creativecommons.org/ns#"
   xmlns:rdf="http://www.w3.org/1999/02/22-rdf-syntax-ns#"
   xmlns:svg="http://www.w3.org/2000/svg"
   xmlns="http://www.w3.org/2000/svg"
   xmlns:sodipodi="http://sodipodi.sourceforge.net/DTD/sodipodi-0.dtd"
   xmlns:inkscape="http://www.inkscape.org/namespaces/inkscape"
   version="1.1"
   id="_x31_0"
   x="0px"
   y="0px"
   viewBox="0 0 512 512"
   style="width: 32px; height: 32px;"
   xml:space="preserve"
   sodipodi:docname="next.svg"
   inkscape:version="0.92.2 2405546, 2018-03-11"><metadata
   id="metadata15"><rdf:RDF><cc:Work
       rdf:about=""><dc:format>image/svg+xml</dc:format><dc:type
         rdf:resource="http://purl.org/dc/dcmitype/StillImage" /></cc:Work></rdf:RDF></metadata><defs
   id="defs13" /><sodipodi:namedview
   pagecolor="#ffffff"
   bordercolor="#666666"
   borderopacity="1"
   objecttolerance="10"
   gridtolerance="10"
   guidetolerance="10"
   inkscape:pageopacity="0"
   inkscape:pageshadow="2"
   inkscape:window-width="1916"
   inkscape:window-height="1032"
   id="namedview11"
   showgrid="false"
   inkscape:zoom="0.4609375"
   inkscape:cx="-708.33899"
   inkscape:cy="256"
   inkscape:window-x="0"
   inkscape:window-y="28"
   inkscape:window-maximized="1"
   inkscape:current-layer="_x31_0" />
<style
   type="text/css"
   id="style2">
	.st0{fill:#374149;}
</style>
<g
   id="g8"
   transform="matrix(0.82642238,0,0,0.82642238,44.435871,44.435958)"
   style="fill:#6e6e6e;fill-opacity:1">
	<path
   class="st0"
   d="M 324.527,236.826 33.207,68.635 C 18.446,60.112 0,70.764 0,87.807 v 336.386 c 0,17.043 18.446,27.692 33.207,19.172 L 324.527,275.17 c 14.758,-8.519 14.758,-29.82 0,-38.344 z"
   id="path4"
   inkscape:connector-curvature="0"
   style="fill:#6e6e6e;fill-opacity:1" />
	<path
   class="st0"
   d="m 497.371,65.635 h -54.363 c -8.078,0 -14.629,6.551 -14.629,14.629 v 351.473 c 0,8.078 6.55,14.629 14.629,14.629 h 54.363 c 8.078,0 14.629,-6.55 14.629,-14.629 V 80.264 c 0,-8.078 -6.55,-14.629 -14.629,-14.629 z"
   id="path6"
   inkscape:connector-curvature="0"
   style="fill:#6e6e6e;fill-opacity:1" />
</g>
</svg>