<?xml version="1.0" encoding="UTF-8" standalone="no"?>
<!--?xml version="1.0" encoding="utf-8"?-->

<!-- Generator: Adobe Illustrator 18.0.0, SVG Export Plug-In . SVG Version: 6.00 Build 0)  -->

<svg
   xmlns:dc="http://purl.org/dc/elements/1.1/"
   xmlns:cc="http://creativecommons.org/ns#"
   xmlns:rdf="http://www.w3.org/1999/02/22-rdf-syntax-ns#"
   xmlns:svg="http://www.w3.org/2000/svg"
   xmlns="http://www.w3.org/2000/svg"
   xmlns:sodipodi="http://sodipodi.sourceforge.net/DTD/sodipodi-0.dtd"
   xmlns:inkscape="http://www.inkscape.org/namespaces/inkscape"
   version="1.1"
   id="_x31_0"
   x="0px"
   y="0px"
   viewBox="0 0 512 512"
   style="width: 32px; height: 32px; opacity: 1;"
   xml:space="preserve"
   sodipodi:docname="pause.svg"
   inkscape:version="0.92.2 2405546, 2018-03-11"><metadata
   id="metadata15"><rdf:RDF><cc:Work
       rdf:about=""><dc:format>image/svg+xml</dc:format><dc:type
         rdf:resource="http://purl.org/dc/dcmitype/StillImage" /></cc:Work></rdf:RDF></metadata><defs
   id="defs13" /><sodipodi:namedview
   pagecolor="#ffffff"
   bordercolor="#666666"
   borderopacity="1"
   objecttolerance="10"
   gridtolerance="10"
   guidetolerance="10"
   inkscape:pageopacity="0"
   inkscape:pageshadow="2"
   inkscape:window-width="1117"
   inkscape:window-height="992"
   id="namedview11"
   showgrid="false"
   inkscape:zoom="0.4609375"
   inkscape:cx="-265.76271"
   inkscape:cy="256"
   inkscape:window-x="20"
   inkscape:window-y="48"
   inkscape:window-maximized="0"
   inkscape:current-layer="_x31_0" />
<style
   type="text/css"
   id="style2">
	.st0{fill:#374149;}
</style>
<g
   id="g8"
   transform="matrix(0.5241325,0,0,0.5241325,121.82208,121.82208)"
   style="fill:#6e6e6e;fill-opacity:1">
	<path
   class="st0"
   d="M 158.367,0 H 41.299 C 20.699,0 3.842,16.857 3.842,37.457 v 437.086 c 0,20.6 16.857,37.457 37.457,37.457 h 117.068 c 20.6,0 37.457,-16.857 37.457,-37.457 V 37.457 C 195.824,16.857 178.967,0 158.367,0 Z"
   id="path4"
   inkscape:connector-curvature="0"
   style="fill:#6e6e6e;fill-opacity:1" />
	<path
   class="st0"
   d="M 470.705,0 H 353.637 c -20.6,0 -37.456,16.857 -37.456,37.457 v 437.086 c 0,20.6 16.856,37.457 37.456,37.457 h 117.068 c 20.601,0 37.453,-16.857 37.453,-37.457 V 37.457 C 508.158,16.857 491.306,0 470.705,0 Z"
   id="path6"
   inkscape:connector-curvature="0"
   style="fill:#6e6e6e;fill-opacity:1" />
</g>
</svg>