<?xml version="1.0" encoding="UTF-8" standalone="no"?>
<!-- Created with Inkscape (http://www.inkscape.org/) -->

<svg
   xmlns:dc="http://purl.org/dc/elements/1.1/"
   xmlns:cc="http://creativecommons.org/ns#"
   xmlns:rdf="http://www.w3.org/1999/02/22-rdf-syntax-ns#"
   xmlns:svg="http://www.w3.org/2000/svg"
   xmlns="http://www.w3.org/2000/svg"
   xmlns:xlink="http://www.w3.org/1999/xlink"
   xmlns:sodipodi="http://sodipodi.sourceforge.net/DTD/sodipodi-0.dtd"
   xmlns:inkscape="http://www.inkscape.org/namespaces/inkscape"
   version="1.0"
   width="1920"
   height="1080"
   id="svg2424"
   sodipodi:docname="GrumpyArch.svg"
   inkscape:version="0.92.2 2405546, 2018-03-11"
   enable-background="new">
  <metadata
     id="metadata176">
    <rdf:RDF>
      <cc:Work
         rdf:about="">
        <dc:format>image/svg+xml</dc:format>
        <dc:type
           rdf:resource="http://purl.org/dc/dcmitype/StillImage" />
        <dc:title />
      </cc:Work>
    </rdf:RDF>
  </metadata>
  <sodipodi:namedview
     pagecolor="#ffffff"
     bordercolor="#666666"
     borderopacity="1"
     objecttolerance="10"
     gridtolerance="10"
     guidetolerance="10"
     inkscape:pageopacity="0"
     inkscape:pageshadow="2"
     inkscape:window-width="1104"
     inkscape:window-height="929"
     id="namedview174"
     showgrid="false"
     inkscape:pagecheckerboard="true"
     inkscape:measure-start="1240,480"
     inkscape:measure-end="1920,480"
     inkscape:zoom="1.0146982"
     inkscape:cx="1142.0411"
     inkscape:cy="441.2951"
     inkscape:window-x="20"
     inkscape:window-y="105"
     inkscape:window-maximized="0"
     inkscape:current-layer="layer2"
     inkscape:snap-grids="false"
     inkscape:snap-page="true"
     inkscape:snap-text-baseline="true"
     inkscape:snap-center="true">
    <inkscape:grid
       type="xygrid"
       id="grid186" />
  </sodipodi:namedview>
  <defs
     id="defs2426">
    <inkscape:perspective
       sodipodi:type="inkscape:persp3d"
       inkscape:vp_x="0 : 540 : 1"
       inkscape:vp_y="0 : 1000 : 0"
       inkscape:vp_z="1920 : 540 : 1"
       inkscape:persp3d-origin="960 : 360 : 1"
       id="perspective1410" />
    <linearGradient
       x1="112.49854"
       y1="6.1372099"
       x2="112.49853"
       y2="129.3468"
       id="path1082_2_"
       gradientUnits="userSpaceOnUse"
       gradientTransform="translate(287,-83)">
      <stop
         id="stop193"
         style="stop-color:#ffffff;stop-opacity:0"
         offset="0" />
      <stop
         id="stop195"
         style="stop-color:#ffffff;stop-opacity:0.27450982"
         offset="1" />
      <midPointStop
         offset="0"
         style="stop-color:#FFFFFF"
         id="midPointStop197" />
      <midPointStop
         offset="0.5"
         style="stop-color:#FFFFFF"
         id="midPointStop199" />
      <midPointStop
         offset="1"
         style="stop-color:#000000"
         id="midPointStop201" />
    </linearGradient>
    <linearGradient
       x1="541.33502"
       y1="104.50665"
       x2="606.91248"
       y2="303.14029"
       id="linearGradient2544"
       xlink:href="#path1082_2_"
       gradientUnits="userSpaceOnUse"
       gradientTransform="matrix(-0.3937741,0,0,0.393752,357.51969,122.00151)" />
    <linearGradient
       id="linearGradient3388">
      <stop
         id="stop3390"
         style="stop-color:#000000;stop-opacity:0"
         offset="0" />
      <stop
         id="stop3392"
         style="stop-color:#000000;stop-opacity:0.37113401"
         offset="1" />
    </linearGradient>
    <linearGradient
       x1="490.72305"
       y1="237.72447"
       x2="490.72305"
       y2="183.9644"
       id="linearGradient4416"
       xlink:href="#linearGradient3388"
       gradientUnits="userSpaceOnUse"
       gradientTransform="matrix(0.749107,0,0,0.749107,-35.459862,91.44108)" />
    <filter
       style="color-interpolation-filters:sRGB;"
       inkscape:label="Greyscale"
       id="filter1014">
      <feColorMatrix
         values="0.21 0.229508 0.072 0 0 0.21 0.229508 0.072 0 0 0.21 0.229508 0.072 0 0 0 0 0 1 0 "
         id="feColorMatrix1012" />
    </filter>
  </defs>
  <g
     inkscape:groupmode="layer"
     id="layer2"
     inkscape:label="Background"
     style="display:inline">
    <path
       id="rect1100"
       style="opacity:1;fill:#1a1c27;fill-opacity:1;stroke:#000000;stroke-width:2;stroke-linejoin:miter;stroke-miterlimit:4;stroke-dasharray:none;stroke-opacity:1;paint-order:normal"
       d="M 1.3300781,0.98632812 V 371.01367 c 0.1210056,1.56561 0.2339519,3.13829 0.4121094,5.07813 -0.3365147,4.92246 -0.3718313,5.80294 -0.3964844,6.14648 0.00765,0.26961 0.016906,0.53902 0.025391,0.8086 0.086974,3.2813 0.016621,6.56386 0.017578,9.8457 0.00848,2.79472 0.00722,5.59003 0.00586,8.38476 -7.2e-4,2.77978 -1e-7,5.56006 0,8.33985 -7.54e-5,2.47529 0.0033,3.52395 -0.064453,3.89258 v 136.73242 c 0.8058214,4.61007 0.4951467,8.91155 0.00977,13.56836 0.021813,0.6697 0.043318,1.34003 0.064453,2.00976 0.00863,2.73726 -0.018628,5.47353 -0.013672,8.21094 0.00694,2.34034 0.00319,4.68115 0.00195,7.02148 0.015499,1.12853 -0.00628,2.14242 -0.0625,3.06836 V 1080.9863 H 1921.3301 V 0.98632812 Z" />
  </g>
  <g
     inkscape:groupmode="layer"
     id="layer11"
     inkscape:label="Stripes"
     style="display:inline" />
  <g
     inkscape:label="Background copy"
     id="g1541"
     inkscape:groupmode="layer"
     style="display:inline">
    <path
       style="fill:#020202;fill-opacity:1;stroke-width:0;stroke:#ffffff;stroke-opacity:1;stroke-miterlimit:4;stroke-dasharray:none"
       d="m 902.14542,723.55804 c 0,-1.71823 6.70666,-8.77876 11.40733,-12.00919 1.93047,-1.32669 8.24839,-4.54332 14.0398,-7.14808 11.84232,-5.32621 11.99487,-5.48646 9.41475,-9.88909 -2.72208,-4.64487 -5.10816,-6.08083 -20.89852,-12.57691 -3.97978,-1.63726 -7.96108,-3.56676 -8.84732,-4.28778 l -1.61137,-1.31093 1.49827,-2.48622 c 0.82406,-1.36741 1.8163,-2.48621 2.205,-2.48621 0.3887,0 1.87929,1.20993 3.31244,2.68873 2.71933,2.80596 6.39871,4.91304 13.58846,7.78176 2.34479,0.93556 6.03608,2.52512 8.20289,3.53236 3.71949,1.729 4.03508,1.78196 5.64803,0.94787 5.18187,-2.67965 18.64229,-14.84036 20.59552,-18.60691 1.35559,-2.61401 1.98536,-2.73474 3.05184,-0.585 1.79127,3.61083 -0.48401,7.18199 -7.44473,11.68474 -2.22439,1.4389 -5.42252,3.99439 -7.10699,5.67887 -4.90142,4.90142 -7.49879,11.31803 -5.31503,13.13039 0.43502,0.36104 4.3179,1.1892 8.6286,1.84036 9.0812,1.37177 11.91579,2.21553 15.78595,4.699 3.22469,2.0693 9.99314,9.03079 11.3711,11.69548 2.06324,3.98988 0.61371,3.53602 -6.31859,-1.9784 -3.78897,-3.01397 -8.34233,-6.19157 -10.11863,-7.06134 -6.14874,-3.01073 -17.5963,-3.04188 -26.99301,-0.0735 -5.86788,1.85367 -16.95103,7.44014 -25.90256,13.05621 -6.33866,3.9768 -8.19323,4.82874 -8.19323,3.76376 z m 89.56655,-39.17835 c -5.75016,-3.39731 -13.20577,-12.08379 -19.93856,-23.23028 -1.65248,-2.73577 -3.42753,-5.21084 -3.94455,-5.50016 -0.60045,-0.33602 -1.62425,-0.24015 -2.83415,0.26538 -2.45586,1.02613 -2.75944,0.65174 -4.58871,-5.65944 -0.78494,-2.70802 -2.76345,-7.98595 -4.39671,-11.72872 -1.63331,-3.74278 -2.96959,-7.44714 -2.96959,-8.23192 0,-0.78478 0.43308,-2.69791 0.96238,-4.25141 0.82615,-2.42456 0.86283,-3.37126 0.25908,-6.68536 -1.66793,-9.15547 -5.15901,-17.27938 -10.16166,-23.64656 -1.11848,-1.42354 -1.29718,-2.36739 -1.29718,-6.85131 0,-3.93429 0.22253,-5.42321 0.91403,-6.11579 2.45727,-2.46118 8.53247,5.6874 11.6994,15.69226 1.03513,3.27015 2.43762,6.55959 3.11666,7.30987 1.30961,1.44693 8.93366,5.36326 10.4409,5.36326 0.62363,0 1.62123,-2.18816 3.3023,-7.24345 3.79853,-11.42283 3.51579,-13.29578 -4.40309,-29.16392 -3.78693,-7.58846 -4.3104,-9.22197 -2.95505,-9.22197 2.36661,0 11.58729,7.80686 15.84758,13.41759 3.25411,4.28569 5.10126,7.38135 10.60134,17.76652 2.88431,5.44607 5.34111,9.32003 6.62628,10.44841 1.99197,1.74901 2.15913,1.78658 6.77053,1.52193 2.6005,-0.14924 9.135,-1.15656 14.5209,-2.23847 7.0324,-1.41265 9.9715,-1.78845 10.4268,-1.33322 0.4552,0.45523 -0.027,2.54556 -1.7109,7.41572 l -2.3447,6.78178 4.1433,2.5123 c 2.2787,1.38176 4.4149,2.9431 4.7471,3.46966 0.4581,0.72619 0.016,2.38234 -1.8333,6.85805 -3.8809,9.39613 -3.8204,11.17893 0.5484,16.15459 2.1907,2.49509 2.0611,2.72033 -3.8626,6.71658 -10.8068,7.29038 -22.1485,11.00542 -36.7651,12.04267 -3.40554,0.24167 -5.25747,0.62403 -5.44981,1.12519 -0.16015,0.41751 1.95762,4.50762 4.7063,9.08913 4.49614,7.49417 5.27894,9.34481 3.95292,9.34481 -0.22966,0 -2.0884,-0.98718 -4.13054,-2.19372 z m 10.43333,-42.55601 c 9.0679,-2.82477 12.9354,-10.90766 12.4253,-25.96837 l -0.1068,-3.15157 -4.5337,0.35298 c -4.9214,0.38318 -14.35577,1.53745 -14.60518,1.7869 -0.085,0.085 0.0653,2.37271 0.33388,5.08385 0.60971,6.15321 0.31221,10.51052 -0.79315,11.61587 -0.89472,0.89471 -0.82943,1.01077 -6.35514,-11.29313 -1.48597,-3.30884 -1.61052,-3.4232 -3.34893,-3.07552 -2.02134,0.40428 -13.27537,5.88263 -14.45294,7.03561 -0.61921,0.60621 -0.31761,1.60209 1.64396,5.42778 2.84282,5.54464 6.19934,9.79427 9.55394,12.09601 2.42379,1.66316 2.44926,1.66675 9.74263,1.37444 4.43313,-0.17767 8.56583,-0.68357 10.49613,-1.28485 z m -121.04456,39.65163 c 0.008,-0.25262 0.528,-2.69691 1.15497,-5.43175 1.51152,-6.59325 1.52676,-6.46649 -0.73124,-6.08147 -3.29713,0.56222 -9.91331,2.61694 -14.92875,4.63628 l -4.83766,1.94776 -3.64472,-3.71381 c -4.18478,-4.2641 -5.14616,-4.63683 -18.0856,-7.01182 -8.81371,-1.61772 -13.19335,-3.01196 -14.12707,-4.49728 -0.47163,-0.75025 -0.24331,-1.52972 0.99716,-3.4042 0.88487,-1.33712 1.52411,-2.87118 1.42054,-3.409 -0.10358,-0.53783 -1.36979,-1.54353 -2.81381,-2.23491 -2.1272,-1.01847 -3.69158,-2.68487 -8.24275,-8.78026 -7.51139,-10.06 -7.58011,-10.18042 -7.85347,-13.76285 -0.13096,-1.71612 -1.04583,-5.45008 -2.03306,-8.2977 -0.98723,-2.84762 -1.64525,-5.64919 -1.46226,-6.22574 0.40885,-1.28819 2.35976,-2.08343 7.3137,-2.98128 4.05964,-0.73577 6.89477,-2.12241 7.98293,-3.90438 0.3688,-0.60395 1.50288,-3.09744 2.52017,-5.54108 1.0173,-2.44366 2.26278,-4.60155 2.76774,-4.79532 0.50495,-0.19376 2.20077,-0.18215 3.76848,0.0258 l 2.85039,0.37812 0.0426,-4.90155 c 0.0481,-5.5275 0.44459,-11.55666 0.83209,-12.65268 0.41932,-1.186 1.03834,-0.90105 5.60435,2.57983 8.01778,6.11234 26.00749,17.16364 27.93957,17.16364 0.41376,0 0.68083,-1.00126 0.68083,-2.5524 0,-2.29177 0.28376,-2.8167 2.77871,-5.14038 1.52829,-1.42338 3.62835,-2.93673 4.6668,-3.36303 1.68202,-0.69049 2.10765,-0.64553 3.89978,0.41185 1.10643,0.6528 2.16533,1.03329 2.3531,0.84552 0.18777,-0.18777 0.34141,-1.99937 0.34141,-4.02577 0,-4.13479 0.65557,-4.89551 4.21881,-4.89551 2.68883,0 3.57536,-0.69169 13.99034,-10.91562 5.02799,-4.93575 9.40542,-8.97409 9.72764,-8.97409 0.82348,0 1.73628,2.49685 2.78019,7.60489 1.13209,5.53962 3.41516,12.46969 5.91579,17.95695 l 1.94205,4.26157 -1.21797,3.95427 c -1.39691,4.53523 -4.4414,11.18157 -6.53544,14.26731 -0.78844,1.16182 -2.16659,3.3633 -3.06256,4.89217 l -1.62906,2.77976 2.43738,2.02462 c 1.34056,1.11354 2.43738,2.32556 2.43738,2.69336 0,0.36781 -1.47418,3.10532 -3.27596,6.08335 -3.60856,5.96434 -3.72102,6.57357 -2.55156,13.82293 1.5446,9.57494 -0.64535,15.76054 -8.61825,24.3426 -5.98896,6.44654 -17.76201,16.29719 -17.71375,14.82131 z m -12.36729,-37.05116 c 7.5316,-1.22208 11.93651,-4.82997 13.824,-11.3227 1.38551,-4.76598 1.29164,-7.13177 -0.35293,-8.89489 -1.60422,-1.71987 -5.54292,-3.83795 -10.85512,-5.83745 l -3.63535,-1.36834 -2.39088,7.14547 c -2.8032,8.37775 -3.27802,9.30274 -4.11834,8.02296 -0.31689,-0.48262 -0.98345,-2.32534 -1.48123,-4.09494 -2.66897,-9.48812 -3.18058,-10.13291 -8.26242,-10.41323 -6.40008,-0.35303 -17.17477,2.72102 -17.17477,4.90003 0,1.15714 5.00443,9.58545 8.83625,14.88173 1.58451,2.19008 3.74201,4.36455 5.07239,5.11226 4.01216,2.25495 13.0765,3.07986 20.5384,1.8691 z M 780.24782,596.9966 c -0.20109,-1.00546 -0.36612,-8.0473 -0.36673,-15.64853 l -0.002,-13.82043 -4.43152,-7.31239 c -5.76592,-9.51446 -9.03717,-16.02371 -11.31846,-22.52217 -2.16419,-6.1649 -6.76078,-15.46191 -11.45081,-23.16033 -7.39203,-12.1336 -9.58503,-18.50752 -10.74972,-31.24388 -1.13469,-12.40825 -1.14184,-12.31347 1.10344,-14.63001 1.08857,-1.12313 2.98575,-2.73957 4.21596,-3.5921 2.14683,-1.48776 2.45376,-1.5351 7.63648,-1.17771 19.03953,1.31295 54.88488,15.4999 86.29919,34.1557 13.46818,7.99825 16.53562,8.91719 33.75888,10.11346 5.46967,0.37992 10.02137,0.7638 10.1149,0.85307 0.19114,0.18244 -19.04789,18.65423 -19.66863,18.88426 -0.21866,0.081 -1.71233,-1.41442 -3.3193,-3.32322 -1.60696,-1.9088 -3.28524,-3.62534 -3.72951,-3.81453 -0.87542,-0.37278 -0.89474,-0.58646 0.81137,8.97189 0.99659,5.58329 0.56618,8.35817 -1.70618,10.99996 -1.36212,1.58357 -1.42606,1.5948 -11.10534,1.95045 -8.41387,0.30914 -9.92603,0.51109 -11.1403,1.48778 -0.77273,0.62156 -2.35963,1.89454 -3.52643,2.82886 l -2.12146,1.69878 -1.70427,-1.26003 c -0.93735,-0.69301 -2.02457,-1.26003 -2.41606,-1.26003 -0.39149,0 -2.39564,1.70887 -4.45367,3.79748 -2.8843,2.92716 -5.03931,4.43546 -9.40299,6.58116 -6.45827,3.17564 -7.11866,4.03985 -8.63153,11.29568 -0.80717,3.87118 -0.79466,4.96915 0.14079,12.35756 l 1.02667,8.1089 -1.43849,1.4309 c -1.65204,1.64333 -18.57901,9.07755 -20.66867,9.07755 -1.08967,0 -1.46993,-0.39577 -1.75639,-1.82808 z m 32.86332,-57.18472 c 5.05062,-1.89126 13.82986,-4.93658 19.50943,-6.76741 5.67957,-1.83082 10.75896,-3.645 11.28754,-4.03151 0.86208,-0.63037 0.70981,-1.06305 -1.47839,-4.20118 -3.36895,-4.83146 -9.97293,-12.63951 -14.86761,-17.57833 -4.49698,-4.53755 -9.04462,-7.27483 -26.95144,-16.22242 -20.2296,-10.10822 -26.51519,-12.46963 -36.11542,-13.56808 -4.08257,-0.46712 -5.08812,0.15335 -5.08684,3.13884 0.002,3.04093 1.69922,6.04352 4.09403,7.23986 1.63575,0.81715 3.58652,1.023 9.70111,1.02374 4.2095,4.3e-4 7.79961,0.14687 7.97802,0.32529 0.17842,0.17842 -0.35442,2.57541 -1.18407,5.32663 l -1.50846,5.00226 4.75445,4.47197 c 2.61495,2.45958 4.90588,5.13008 5.09095,5.93445 0.18508,0.80436 0.11007,2.84058 -0.16668,4.52493 -0.27675,1.68435 -0.39355,3.17208 -0.25956,3.30607 0.13398,0.13399 1.60584,-0.23612 3.27079,-0.82245 3.96915,-1.39778 4.5653,-0.90433 4.14791,3.43338 -0.17493,1.81796 -0.42271,3.63442 -0.55063,4.03661 -0.42576,1.33869 0.35403,0.76531 5.07453,-3.73135 5.73163,-5.45984 6.36078,-5.29433 5.23956,1.37839 -0.41824,2.48914 -1.27794,6.20115 -1.91044,8.24892 -0.63249,2.04776 -0.99661,3.87657 -0.80917,4.06402 0.18744,0.18744 1.2678,-0.10124 2.40078,-0.64152 2.11593,-1.00902 3.77525,-1.27403 3.77525,-0.60293 0,0.20867 -1.1984,2.57789 -2.66309,5.26493 -1.4647,2.68702 -2.50389,4.88551 -2.3093,4.88551 0.19461,0 4.48614,-1.54739 9.53675,-3.43862 z m 246.72656,32.65508 c -7.4226,-7.22329 -9.3967,-10.00589 -8.7963,-12.39832 0.535,-2.13157 -0.5373,-4.12861 -4.5307,-8.43794 -5.6097,-6.0534 -5.3557,-5.49023 -5.7017,-12.63738 l -0.3131,-6.46702 -8.1899,-6.0033 -8.1898,-6.0033 -10.8224,0.0112 c -11.517,0.012 -15.40713,-0.35682 -31.58958,-2.99512 -5.6305,-0.91798 -12.73808,-1.98494 -15.79472,-2.37103 -3.05657,-0.3861 -5.8865,-0.96978 -6.28863,-1.29708 -1.07108,-0.8716 -0.89185,-3.24993 0.29247,-3.88171 0.56307,-0.30037 6.65068,-1.37285 13.52798,-2.3833 6.87741,-1.01045 13.34321,-2.1877 14.36857,-2.61611 1.02531,-0.42841 3.15743,-2.32671 4.73791,-4.21844 6.26401,-7.49736 13.4915,-15.21786 28.0523,-29.96573 23.0084,-23.304 29.9006,-28.93299 43.8804,-35.83748 9.6629,-4.77238 14.6029,-6.06328 19.9024,-5.20076 6.8347,1.11236 12.0302,4.83848 13.6914,9.81919 1.0874,3.26019 1.4805,16.18089 0.6626,21.77482 -0.7853,5.37081 -10.3586,39.75771 -14.0857,50.59522 -2.7515,8.00074 -5.2741,13.45375 -6.1308,13.25317 -0.7915,-0.18528 -0.4403,-4.87742 0.9483,-12.66817 0.6307,-3.5392 1.6634,-10.3836 2.2949,-15.20978 0.9491,-7.25321 1.6781,-10.29653 4.2042,-17.54974 l 3.056,-8.77488 0.013,-11.21527 c 0.012,-10.47365 -0.068,-11.32469 -1.2106,-12.86981 -2.2741,-3.07454 -4.7316,-4.28803 -8.6613,-4.27686 -6.1637,0.0175 -14.1684,1.09255 -17.5468,2.35659 -7.5291,2.81701 -16.2143,11.14186 -31.8637,30.54153 -5.7738,7.15747 -12.794,15.64603 -15.6004,18.86348 -5.5579,6.3719 -9.6353,12.18939 -9.6353,13.74733 0,0.54374 0.5536,1.4901 1.2302,2.10302 1.3397,1.21355 6.0833,1.41608 16.3196,0.69675 3.3073,-0.23242 6.3436,-0.0704 9.0674,0.48392 5.2866,1.07589 14.6582,5.67668 20.7237,10.17401 5.4196,4.01837 5.3536,3.23402 0.8297,9.8637 -1.3976,2.04832 -2.5338,4.15429 -2.5246,4.67993 0.01,0.52564 1.4236,1.8069 3.1433,2.84724 4.4194,2.67341 9.1249,7.04617 9.1249,8.47955 0,1.0983 0.2255,1.15925 2.7787,0.75118 6.0266,-0.96318 5.7166,-1.173 5.6057,3.79503 -0.054,2.41309 -0.6446,6.36179 -1.3127,8.77487 -3.1541,11.39184 -3.203,11.67844 -2.6081,15.27605 0.3132,1.89402 0.4839,3.44368 0.3791,3.44368 -0.1047,0 -3.4519,-3.17385 -7.438,-7.05301 z"
       id="path1672"
       inkscape:connector-curvature="0" />
    <path
       style="opacity:1;fill:#ffffff;fill-opacity:1;stroke:none;stroke-width:0.90801537;stroke-linejoin:miter;stroke-miterlimit:4;stroke-dasharray:none;stroke-dashoffset:0;stroke-opacity:1;paint-order:normal"
       d="m 855.09242,644.44375 c -5.89048,-0.92753 -8.1095,-2.24681 -11.76112,-6.99238 -3.07925,-4.00171 -8.84712,-13.79927 -8.70423,-14.78538 0.35868,-2.47524 12.24856,-5.59666 18.20031,-4.77809 3.27832,0.45089 4.10019,1.57044 6.29111,8.56984 1.01105,3.23001 2.03621,5.99508 2.27815,6.14461 0.77433,0.47856 1.57204,-1.17493 3.8741,-8.03011 1.23784,-3.68611 2.38314,-6.8521 2.5451,-7.03554 0.16197,-0.18344 1.97231,0.34288 4.023,1.16961 10.54515,4.25122 12.3727,6.2259 11.16654,12.06556 -1.49432,7.23477 -5.09827,11.16103 -11.94872,13.01734 -3.10424,0.84117 -12.36709,1.22095 -15.96424,0.65454 z"
       id="path1678"
       inkscape:connector-curvature="0" />
    <path
       style="opacity:1;fill:#ffffff;fill-opacity:1;stroke:none;stroke-width:0.90801537;stroke-linejoin:miter;stroke-miterlimit:4;stroke-dasharray:none;stroke-dashoffset:0;stroke-opacity:1;paint-order:normal"
       d="m 983.32717,642.5278 c -4.46073,-2.03704 -13.56383,-15.217 -12.47313,-18.05926 0.14633,-0.38131 2.85608,-1.95229 6.02177,-3.49107 7.18198,-3.49106 8.81782,-4.08164 9.72335,-3.51045 0.3775,0.23813 2.00955,3.30898 3.62673,6.82411 3.83902,8.34478 4.16079,8.72889 5.21666,6.22645 0.55736,-1.32077 0.58892,-3.31736 0.22057,-13.94452 l -0.06,-1.72955 5.62108,-0.69916 c 3.0916,-0.38455 7.3236,-0.8398 9.4045,-1.01169 l 3.7833,-0.31253 -0.015,5.33557 c -0.035,12.17576 -3.0608,19.19874 -9.652,22.39879 -3.195,1.55113 -6.3761,2.09356 -14.11428,2.4067 -4.72341,0.19113 -6.11701,0.10844 -7.30356,-0.43339 z"
       id="path1680"
       inkscape:connector-curvature="0" />
  </g>
  <g
     inkscape:groupmode="layer"
     id="layer5"
     inkscape:label="Logo Rect"
     style="display:inline">
    <rect
       style="opacity:1;fill:#000000;fill-opacity:1;stroke:none;stroke-width:1.04700005;stroke-linejoin:miter;stroke-miterlimit:4;stroke-dasharray:none;stroke-dashoffset:0;stroke-opacity:1;paint-order:normal"
       id="rect1754"
       width="334.51431"
       height="91.092812"
       x="1384.8704"
       y="913.44775" />
    <rect
       style="opacity:1;fill:#d8d8d8;fill-opacity:1;stroke:none;stroke-width:0.81178427;stroke-linejoin:miter;stroke-miterlimit:4;stroke-dasharray:none;stroke-dashoffset:0;stroke-opacity:1;paint-order:normal"
       id="rect1754-3"
       width="201.09561"
       height="91.092812"
       x="1719.3848"
       y="913.44775" />
  </g>
  <g
     inkscape:groupmode="layer"
     id="layer3"
     inkscape:label="Logo">
    <g
       transform="translate(1301.8306,736.63545)"
       id="layer1"
       style="stroke:#000000;stroke-opacity:1;stroke-width:0.7;stroke-miterlimit:4;stroke-dasharray:none">
      <g
         transform="matrix(0.8746356,0,0,0.8746356,14.730518,23.408954)"
         id="g2424"
         style="fill:#000000;stroke:#000000;stroke-opacity:1;stroke-width:0.8003333;stroke-miterlimit:4;stroke-dasharray:none">
        <g
           transform="matrix(0.6378586,0,0,0.6378586,36.486487,2.17139)"
           id="g2809"
           style="fill:#000000;fill-opacity:1;stroke:#000000;stroke-opacity:1;stroke-width:1.254719;stroke-miterlimit:4;stroke-dasharray:none">
          <path
             d="m 339.96875,309.09375 c -14.47141,-0.0239 -26.4812,2.94367 -31.125,4.5625 l -4.78125,25.8125 c -0.0116,0.0951 23.79543,-6.34855 34.28125,-5.96875 17.36158,0.62381 18.95948,6.63541 18.65625,14.75 0.29595,0.47462 -4.47933,-7.33192 -19.5,-7.59375 -18.94961,-0.32687 -45.69284,6.70947 -45.65625,35.3125 -0.51086,32.17412 24.03361,41.63882 40.75,41.8125 15.02821,-0.27364 22.0777,-5.69136 25.9375,-8.59375 5.07124,-5.30236 10.87308,-10.63447 16.40625,-17.03125 -5.23567,9.51278 -9.77472,16.0898 -14.5,21.125 v 4.25 l 22.84375,-3.84375 0.15625,-62.09375 c -0.23141,-8.78839 5.04123,-42.41827 -43.46875,-42.5 z m -3.28125,54.0625 c 9.46889,0.12995 20.32788,4.79708 20.34375,16.03125 0.049,10.21821 -12.80005,15.71183 -21.15625,15.625 -8.35976,-0.0868 -19.45093,-6.56982 -19.5,-16.53125 0.16016,-8.90444 10.45953,-15.35418 20.3125,-15.125 z"
             id="path2284"
             style="fill:#d8d8d8;fill-opacity:1;fill-rule:evenodd;stroke:#000000;stroke-opacity:1;stroke-width:1.254719;stroke-miterlimit:4;stroke-dasharray:none"
             inkscape:connector-curvature="0" />
          <path
             d="m 398.50106,314.83145 -0.15505,102.82693 26.61213,-5.12724 0.0449,-58.30157 c 0.006,-8.68089 12.40554,-18.82451 27.9627,-18.66287 3.30202,-5.97408 9.5087,-21.24219 11.02088,-24.71514 -34.75649,-0.0833 -35.19897,9.98993 -41.24398,14.94517 -0.0631,-9.45285 -0.0213,-15.12741 -0.0213,-15.12741 l -24.2202,4.16213 z"
             id="path2286"
             style="fill:#d8d8d8;fill-opacity:1;fill-rule:evenodd;stroke:#000000;stroke-opacity:1;stroke-width:1.254719;stroke-miterlimit:4;stroke-dasharray:none"
             inkscape:connector-curvature="0" />
          <path
             d="m 548.2688,328.33058 c -0.25696,-0.12068 -13.87938,-15.93419 -41.26638,-16.0589 -25.65249,-0.42638 -54.42578,9.51895 -54.88631,52.5328 0.22457,37.81852 27.6402,52.59809 55.0314,52.88627 29.31292,0.30451 40.97654,-18.32947 41.67615,-18.79124 -3.49762,-3.0321 -16.59792,-16.0131 -16.59792,-16.0131 0,0 -8.18236,11.65102 -24.05802,11.79913 -15.87942,0.1512 -29.68245,-12.27325 -29.87805,-29.60905 -0.20349,-17.33595 12.68881,-26.72821 29.99725,-27.48687 14.98466,-0.003 23.6297,9.67334 23.6297,9.67334 z"
             id="path2288"
             style="fill:#d8d8d8;fill-opacity:1;fill-rule:evenodd;stroke:#000000;stroke-opacity:1;stroke-width:1.254719;stroke-miterlimit:4;stroke-dasharray:none"
             inkscape:connector-curvature="0" />
          <path
             d="m 581.8125,278.84375 -25.125,5.90625 0.1875,133.9375 24.75,-4.46875 0.28125,-63.03125 c 0.0529,-6.60927 9.56127,-16.75916 25.4375,-16.4375 15.17973,0.15775 18.57236,10.11767 18.53125,11.375 l 0.4375,72.96875 24.40625,-4.3125 0.0937,-77.375 c 0.1607,-7.44539 -16.30833,-23.16954 -42.78125,-23.28125 -12.58087,0.0202 -19.54815,2.86825 -23.09375,4.96875 -6.06656,4.68565 -12.9998,9.17543 -19.8125,14.90625 6.29809,-8.09099 11.58551,-13.68516 16.75,-17.84375 l -0.0625,-37.3125 z"
             id="path2290"
             style="fill:#d8d8d8;fill-opacity:1;fill-rule:evenodd;stroke:#000000;stroke-opacity:1;stroke-width:1.254719;stroke-miterlimit:4;stroke-dasharray:none"
             inkscape:connector-curvature="0" />
        </g>
        <g
           transform="matrix(0.9443373,0,0.01336345,0.9443373,78.345657,-412.48879)"
           id="g5326"
           style="fill:#000000;fill-opacity:1;stroke:#000000;stroke-opacity:1;stroke-width:0.84750788;stroke-miterlimit:4;stroke-dasharray:none">
          <path
             d="m 400.67581,629.79609 7.68167,-1.91575 -0.92851,91.20792 -7.79574,1.32426 z"
             id="path2292"
             style="fill:#000000;fill-opacity:1;fill-rule:evenodd;stroke:#000000;stroke-width:0.84750789;stroke-miterlimit:4;stroke-dasharray:none;stroke-opacity:1"
             inkscape:connector-curvature="0" />
          <path
             d="m 421.10266,657.01757 6.75064,-2.9867 -0.86808,65.39931 -6.49779,1.33915 z m -1.26059,-23.58316 5.47167,-4.41533 4.42261,4.99952 -5.47558,4.53221 z"
             id="path2294"
             style="fill:#000000;fill-opacity:1;fill-rule:evenodd;stroke:#000000;stroke-opacity:1;stroke-width:0.84750788;stroke-miterlimit:4;stroke-dasharray:none"
             inkscape:connector-curvature="0" />
          <path
             d="m 440.44273,655.82614 7.67755,-1.56201 -0.1573,13.6722 c -0.007,0.58717 4.4194,-15.27364 24.68502,-14.92094 19.67986,0.10952 22.68401,15.34634 22.5291,18.76237 l -0.43759,48.0783 -6.73044,1.45631 0.63316,-47.489 c 0.0974,-1.38684 -2.88144,-13.11441 -16.78906,-13.15754 -13.90509,-0.0404 -23.68364,10.10048 -23.75821,16.57937 l -0.48127,41.83477 -7.80388,2.0313 z"
             id="path2296"
             style="fill:#000000;fill-opacity:1;fill-rule:evenodd;stroke:#000000;stroke-opacity:1;stroke-width:0.84750788;stroke-miterlimit:4;stroke-dasharray:none"
             inkscape:connector-curvature="0" />
          <path
             d="m 561.53301,720.20203 -7.6776,1.56186 0.15737,-13.67198 c 0.007,-0.58742 -4.42201,15.27361 -24.68504,14.92086 -19.67983,-0.10944 -22.68399,-15.34626 -22.52908,-18.76229 l 0.43757,-48.07861 8.15674,-1.64226 -0.54644,47.48988 c -0.0149,1.29682 1.36845,13.29979 15.27604,13.3426 13.90511,0.0405 23.76622,-8.37359 24.01453,-21.04416 l 0.43105,-37.46902 7.5978,-1.93195 z"
             id="path2298"
             style="fill:#000000;fill-opacity:1;fill-rule:evenodd;stroke:#000000;stroke-opacity:1;stroke-width:0.84750788;stroke-miterlimit:4;stroke-dasharray:none"
             inkscape:connector-curvature="0" />
          <path
             d="m 577.45461,655.28678 -5.42715,4.20017 20.19894,26.93328 -22.39092,31.11622 5.63499,4.226 21.04365,-28.8967 20.8779,29.58159 5.32727,-4.20103 -22.37578,-31.62866 18.56963,-25.5775 -5.53193,-4.73429 -16.92109,23.66778 z"
             id="path2300"
             style="fill:#000000;fill-opacity:1;fill-rule:evenodd;stroke:#000000;stroke-opacity:1;stroke-width:0.84750788;stroke-miterlimit:4;stroke-dasharray:none"
             inkscape:connector-curvature="0" />
        </g>
        <path
           d="m 105.8125,16.625 c -7.39687,18.135158 -11.858304,29.997682 -20.09375,47.59375 5.04936,5.35232 11.247211,11.585364 21.3125,18.625 C 96.210077,78.390904 88.828713,73.920352 83.3125,69.28125 72.7727,91.274163 56.259864,122.60209 22.75,182.8125 49.087628,167.60733 69.504089,158.23318 88.53125,154.65625 87.714216,151.1422 87.2497,147.34107 87.28125,143.375 l 0.03125,-0.84375 c 0.417917,-16.87382 9.195665,-29.84979 19.59375,-28.96875 10.39809,0.88104 18.48041,15.28242 18.0625,32.15625 -0.0786,3.17512 -0.43674,6.22955 -1.0625,9.0625 18.82058,3.68164 39.01873,13.03179 65,28.03125 -5.123,-9.4318 -9.69572,-17.93388 -14.0625,-26.03125 -6.87839,-5.33121 -14.05289,-12.2698 -28.6875,-19.78125 10.05899,2.61375 17.2611,5.62932 22.875,9 C 124.63297,63.338161 121.03766,52.354109 105.8125,16.625 Z"
           transform="matrix(1.1433333,0,0,1.1433333,22.920168,121.64318)"
           id="path2518"
           style="fill:#d8d8d8;fill-opacity:1;fill-rule:evenodd;stroke:#000000;stroke-width:2.89999998;stroke-miterlimit:4;stroke-dasharray:none;stroke-opacity:1"
           inkscape:connector-curvature="0" />
        <g
           id="text2634"
           style="font-style:normal;font-weight:normal;font-size:8.44138241px;font-family:'DejaVu Sans Mono';fill:#000000;fill-opacity:1;stroke:#000000;stroke-opacity:1;stroke-width:0.8003333;stroke-miterlimit:4;stroke-dasharray:none">
          <path
             d="m 679.69221,264.04751 v -5.32944 h -1.99082 V 258.005 h 4.7895 v 0.71307 h -1.99906 v 5.32944 h -0.79962"
             id="path4714"
             inkscape:connector-curvature="0"
             style="fill:#4a4a4a;fill-opacity:1;stroke:#000000;stroke-opacity:1;stroke-width:0.8003333;stroke-miterlimit:4;stroke-dasharray:none" />
          <path
             d="M 683.32349,264.04751 V 258.005 h 1.20355 l 1.43026,4.2784 c 0.13189,0.39843 0.22806,0.69658 0.28852,0.89442 0.0687,-0.21983 0.17586,-0.5427 0.3215,-0.96862 l 1.44674,-4.2042 h 1.07578 v 6.04251 h -0.77077 v -5.05741 l -1.75587,5.05741 h -0.72131 l -1.74763,-5.14396 v 5.14396 h -0.77077"
             id="path4716"
             inkscape:connector-curvature="0"
             style="fill:#4a4a4a;fill-opacity:1;stroke:#000000;stroke-opacity:1;stroke-width:0.8003333;stroke-miterlimit:4;stroke-dasharray:none" />
        </g>
        <g
           id="text2638"
           style="font-style:normal;font-weight:normal;font-size:8.25130367px;font-family:'DejaVu Sans Mono';fill:#000000;fill-opacity:1;stroke:#000000;stroke-opacity:1;stroke-width:0.8003333;stroke-miterlimit:4;stroke-dasharray:none" />
      </g>
    </g>
  </g>
  <g
     inkscape:groupmode="layer"
     id="layer7"
     inkscape:label="Grumpy"
     style="" />
  <g
     inkscape:groupmode="layer"
     id="layer8"
     inkscape:label="Eyes"
     style="display:inline" />
</svg>
