<?xml version="1.0" encoding="UTF-8" standalone="no"?>
<!--?xml version="1.0" encoding="utf-8"?-->

<!-- Generator: Adobe Illustrator 18.0.0, SVG Export Plug-In . SVG Version: 6.00 Build 0)  -->

<svg
   xmlns:dc="http://purl.org/dc/elements/1.1/"
   xmlns:cc="http://creativecommons.org/ns#"
   xmlns:rdf="http://www.w3.org/1999/02/22-rdf-syntax-ns#"
   xmlns:svg="http://www.w3.org/2000/svg"
   xmlns="http://www.w3.org/2000/svg"
   xmlns:sodipodi="http://sodipodi.sourceforge.net/DTD/sodipodi-0.dtd"
   xmlns:inkscape="http://www.inkscape.org/namespaces/inkscape"
   version="1.1"
   id="_x31_0"
   x="0px"
   y="0px"
   viewBox="0 0 512 512"
   style="width: 32px; height: 32px; opacity: 1;"
   xml:space="preserve"
   sodipodi:docname="clock.svg"
   inkscape:version="0.92.2 2405546, 2018-03-11"><metadata
   id="metadata982"><rdf:RDF><cc:Work
       rdf:about=""><dc:format>image/svg+xml</dc:format><dc:type
         rdf:resource="http://purl.org/dc/dcmitype/StillImage" /><dc:title /></cc:Work></rdf:RDF></metadata><defs
   id="defs980" /><sodipodi:namedview
   pagecolor="#2b2b2b"
   bordercolor="#666666"
   borderopacity="1"
   objecttolerance="10"
   gridtolerance="10"
   guidetolerance="10"
   inkscape:pageopacity="0"
   inkscape:pageshadow="2"
   inkscape:window-width="926"
   inkscape:window-height="986"
   id="namedview978"
   showgrid="false"
   inkscape:zoom="1.3037281"
   inkscape:cx="128.64893"
   inkscape:cy="309.41508"
   inkscape:window-x="20"
   inkscape:window-y="48"
   inkscape:window-maximized="0"
   inkscape:current-layer="_x31_0" />
<style
   type="text/css"
   id="style963">
	.st0{fill:#374149;}
</style>
<g
   id="g975"
   style="stroke:none;stroke-width:4.89999962;stroke-miterlimit:4;stroke-dasharray:none;stroke-opacity:1;fill:#d8d8d8;fill-opacity:1"
   transform="matrix(0.7596072,0,0,0.7596072,61.540556,61.540556)">
	<path
   class="st0"
   d="M 256,0 C 114.614,0 0,114.617 0,256 0,397.386 114.614,512 256,512 397.386,512 512,397.386 512,256 512,114.617 397.386,0 256,0 Z m 156.539,392.738 -16.164,-16.164 c -5.758,7.398 -12.402,14.042 -19.805,19.801 l 16.168,16.164 c -33.297,29.121 -75.906,47.809 -122.734,50.938 v -22.692 c -4.598,0.578 -9.25,0.973 -14.004,0.973 -4.754,0 -9.406,-0.394 -14.004,-0.973 v 22.692 C 195.168,460.348 152.558,441.66 119.262,412.539 l 16.168,-16.164 c -7.402,-5.758 -14.046,-12.402 -19.805,-19.801 L 99.461,392.738 C 70.34,359.441 51.656,316.832 48.523,270.004 h 22.692 c -0.574,-4.598 -0.969,-9.25 -0.969,-14.004 0,-4.75 0.394,-9.406 0.969,-14.004 H 48.523 c 3.133,-46.824 21.817,-89.434 50.938,-122.73 l 16.164,16.164 c 5.758,-7.398 12.402,-14.046 19.805,-19.805 L 119.266,99.461 C 152.559,70.34 195.168,51.656 241.996,48.523 v 22.692 c 4.598,-0.574 9.25,-0.969 14.004,-0.969 4.754,0 9.406,0.394 14.004,0.969 V 48.523 c 46.828,3.133 89.438,21.817 122.73,50.938 l -16.164,16.164 c 7.402,5.758 14.046,12.406 19.805,19.805 l 16.164,-16.164 c 29.121,33.297 47.805,75.906 50.938,122.73 h -22.692 c 0.574,4.598 0.969,9.254 0.969,14.004 0,4.754 -0.394,9.406 -0.969,14.004 h 22.692 c -3.133,46.828 -21.817,89.438 -50.938,122.734 z"
   id="path965"
   style="fill:#d8d8d8;stroke:none;stroke-width:4.89999962;stroke-miterlimit:4;stroke-dasharray:none;stroke-opacity:1;fill-opacity:1"
   inkscape:connector-curvature="0" />
	<path
   class="st0"
   d="M 210.75,224.558 107.788,177.519 c -6,-2.801 -13.121,-0.16 -15.839,5.922 -2.801,6 -0.161,13.117 5.922,15.84 l 103.836,47.437 c 1.281,-8.16 4.403,-15.679 9.043,-22.16 z"
   id="path967"
   style="fill:#d8d8d8;stroke:none;stroke-width:4.89999962;stroke-miterlimit:4;stroke-dasharray:none;stroke-opacity:1;fill-opacity:1"
   inkscape:connector-curvature="0" />
	<path
   class="st0"
   d="m 380.668,184.238 -84.558,34 c 9.199,9.683 14.878,22.722 15.039,37.121 l 84.48,-34 c 10.242,-4.16 15.199,-15.758 11.122,-26 -4.161,-10.238 -15.841,-15.281 -26.083,-11.121 z"
   id="path969"
   style="fill:#d8d8d8;stroke:none;stroke-width:4.89999962;stroke-miterlimit:4;stroke-dasharray:none;stroke-opacity:1;fill-opacity:1"
   inkscape:connector-curvature="0" />
	<path
   class="st0"
   d="m 181.309,420.32 c -1.52,4.161 0.562,8.719 4.718,10.321 0.961,0.32 1.844,0.48 2.801,0.48 3.282,0 6.321,-2 7.52,-5.199 l 43.523,-117.203 c -5.282,-1.598 -10.164,-3.918 -14.562,-6.957 z"
   id="path971"
   style="fill:#d8d8d8;stroke:none;stroke-width:4.89999962;stroke-miterlimit:4;stroke-dasharray:none;stroke-opacity:1;fill-opacity:1"
   inkscape:connector-curvature="0" />
	<circle
   class="st0"
   cx="256"
   cy="256"
   r="38.148998"
   id="circle973"
   style="fill:#d8d8d8;stroke:none;stroke-width:4.89999962;stroke-miterlimit:4;stroke-dasharray:none;stroke-opacity:1;fill-opacity:1" />
</g>
</svg>