<?xml version="1.0" encoding="UTF-8" standalone="no"?>
<!--?xml version="1.0" encoding="utf-8"?-->

<!-- Generator: Adobe Illustrator 18.1.1, SVG Export Plug-In . SVG Version: 6.00 Build 0)  -->

<svg
   xmlns:dc="http://purl.org/dc/elements/1.1/"
   xmlns:cc="http://creativecommons.org/ns#"
   xmlns:rdf="http://www.w3.org/1999/02/22-rdf-syntax-ns#"
   xmlns:svg="http://www.w3.org/2000/svg"
   xmlns="http://www.w3.org/2000/svg"
   xmlns:sodipodi="http://sodipodi.sourceforge.net/DTD/sodipodi-0.dtd"
   xmlns:inkscape="http://www.inkscape.org/namespaces/inkscape"
   version="1.1"
   id="_x31_0"
   x="0px"
   y="0px"
   viewBox="0 0 512 512"
   style="width: 32px; height: 32px;"
   xml:space="preserve"
   sodipodi:docname="temperature.svg"
   inkscape:version="0.92.2 2405546, 2018-03-11"><metadata
   id="metadata25"><rdf:RDF><cc:Work
       rdf:about=""><dc:format>image/svg+xml</dc:format><dc:type
         rdf:resource="http://purl.org/dc/dcmitype/StillImage" /></cc:Work></rdf:RDF></metadata><defs
   id="defs23" /><sodipodi:namedview
   pagecolor="#ffffff"
   bordercolor="#666666"
   borderopacity="1"
   objecttolerance="10"
   gridtolerance="10"
   guidetolerance="10"
   inkscape:pageopacity="0"
   inkscape:pageshadow="2"
   inkscape:window-width="926"
   inkscape:window-height="990"
   id="namedview21"
   showgrid="false"
   inkscape:zoom="0.4609375"
   inkscape:cx="256"
   inkscape:cy="256"
   inkscape:window-x="20"
   inkscape:window-y="50"
   inkscape:window-maximized="0"
   inkscape:current-layer="_x31_0" />
<style
   type="text/css"
   id="style2">
	.st0{fill:#374149;}
</style>
<g
   id="g18"
   transform="matrix(0.68644007,0,0,0.68644007,80.271433,80.271186)">
	<path
   class="st0"
   d="M 313.404,255.715 V 32.57 C 313.404,14.578 298.756,0 280.763,0 H 170.045 c -17.992,0 -32.57,14.578 -32.57,32.57 v 223.218 c -37.547,29.012 -58.313,74.95 -54.828,123.516 5.121,71.824 63.289,128.781 135.254,132.484 2.562,0.141 5.051,0.211 7.539,0.211 78.934,0 143.145,-64.211 143.145,-143.149 -10e-4,-45.08 -20.407,-86.256 -55.181,-113.135 z M 126.412,426.523 c -8.656,-14.687 -14.125,-31.414 -15.39,-49.206 -3.129,-44.446 18.703,-84.836 54.898,-106.598 V 32.57 c 0,-2.278 1.847,-4.125 4.125,-4.125 h 110.718 c 2.348,0 4.196,1.847 4.196,4.125 v 238.148 c 33.777,20.34 55.183,57.102 55.183,98.133 0,63.219 -51.484,114.703 -114.703,114.703 -1.992,0 -4.054,-0.07 -6.046,-0.14 -18.043,-0.946 -35.086,-6.211 -50.11,-14.746 -17.625,-10.098 -32.508,-24.703 -42.871,-42.145 z"
   id="path4"
   inkscape:connector-curvature="0"
   style="fill:#374149" />
	<path
   class="st0"
   d="m 303.736,368.883 c 0,-35.203 -23.281,-65.043 -55.203,-74.805 V 72 l -0.398,-0.078 c -6.238,3.118 -14.078,5.039 -22.718,5.039 -7.543,0 -14.426,-1.527 -20.234,-3.965 -0.914,-0.406 -1.867,-0.766 -2.726,-1.238 v 0.07 c -0.051,-0.023 -0.11,-0.043 -0.161,-0.07 v 222.321 c -32,9.762 -55.121,39.602 -55.121,74.805 0,43.195 35.039,78.238 78.242,78.238 43.276,-0.001 78.319,-35.044 78.319,-78.239 z m -107.762,-38 c 7.602,-6.485 18.32,-6.082 24.082,0.874 5.839,6.883 4.398,17.684 -3.043,24.164 -7.598,6.398 -19.438,4.719 -24.078,-0.882 -4.722,-5.52 -4.402,-17.68 3.039,-24.156 z"
   id="path6"
   inkscape:connector-curvature="0"
   style="fill:#374149" />
	<polygon
   class="st0"
   points="364.67,229.531 364.67,245.992 429.728,245.992 429.732,245.992 429.732,229.531 429.728,229.531 "
   id="polygon8"
   style="fill:#374149" />
	<polygon
   class="st0"
   points="429.728,43.774 364.67,43.774 364.67,43.774 364.67,60.226 364.67,60.226 429.728,60.226 "
   id="polygon10"
   style="fill:#374149" />
	<polygon
   class="st0"
   points="397.201,94.512 397.201,94.484 397.201,94.484 397.201,94.328 364.67,94.328 364.67,94.328 364.67,102.554 364.67,102.554 397.201,102.554 "
   id="polygon12"
   style="fill:#374149" />
	<polygon
   class="st0"
   points="364.67,195.438 397.201,195.438 397.201,187.39 397.201,187.367 397.201,187.367 397.201,187.203 364.67,187.203 "
   id="polygon14"
   style="fill:#374149" />
	<polygon
   class="st0"
   points="429.728,153.11 429.728,136.649 364.67,136.649 364.67,136.649 364.67,153.11 364.67,153.11 429.728,153.11 "
   id="polygon16"
   style="fill:#374149" />
</g>
</svg>