<?xml version="1.0" encoding="UTF-8" standalone="no"?>
<!--?xml version="1.0" encoding="utf-8"?-->

<!-- Generator: Adobe Illustrator 18.1.1, SVG Export Plug-In . SVG Version: 6.00 Build 0)  -->

<svg
   xmlns:dc="http://purl.org/dc/elements/1.1/"
   xmlns:cc="http://creativecommons.org/ns#"
   xmlns:rdf="http://www.w3.org/1999/02/22-rdf-syntax-ns#"
   xmlns:svg="http://www.w3.org/2000/svg"
   xmlns="http://www.w3.org/2000/svg"
   xmlns:sodipodi="http://sodipodi.sourceforge.net/DTD/sodipodi-0.dtd"
   xmlns:inkscape="http://www.inkscape.org/namespaces/inkscape"
   version="1.1"
   id="_x31_0"
   x="0px"
   y="0px"
   viewBox="0 0 512 512"
   style="width: 256px; height: 256px; opacity: 1;"
   xml:space="preserve"
   sodipodi:docname="upload.svg"
   inkscape:version="0.92.2 2405546, 2018-03-11"><metadata
   id="metadata21"><rdf:RDF><cc:Work
       rdf:about=""><dc:format>image/svg+xml</dc:format><dc:type
         rdf:resource="http://purl.org/dc/dcmitype/StillImage" /><dc:title /></cc:Work></rdf:RDF></metadata><defs
   id="defs19" /><sodipodi:namedview
   pagecolor="#ffffff"
   bordercolor="#666666"
   borderopacity="1"
   objecttolerance="10"
   gridtolerance="10"
   guidetolerance="10"
   inkscape:pageopacity="0"
   inkscape:pageshadow="2"
   inkscape:window-width="926"
   inkscape:window-height="986"
   id="namedview17"
   showgrid="false"
   inkscape:measure-start="0,0"
   inkscape:measure-end="0,0"
   inkscape:zoom="1.3037281"
   inkscape:cx="255.64918"
   inkscape:cy="256.14486"
   inkscape:window-x="20"
   inkscape:window-y="48"
   inkscape:window-maximized="0"
   inkscape:current-layer="_x31_0" />
<style
   type="text/css"
   id="style2">
	.st0{fill:#374149;}
</style>
<g
   id="g14"
   transform="matrix(0.67243404,0,0,0.67243404,83.856884,83.856884)"
   style="fill:#d8d8d8;fill-opacity:1">
	<path
   class="st0"
   d="m 245.74,4.2405 c 5.156,-5.654 15.278,-5.654 20.435,0 l 143.182,148.174 c 6.495,7.113 0.383,17.289 -10.118,17.289 h -79.134 c -0.462,0 -0.836,0.318 -0.836,0.713 v 60.432 c 0,0.392 -0.375,0.709 -0.841,0.709 H 193.49 c -0.462,0 -0.836,-0.317 -0.836,-0.709 v -60.432 c 0,-0.391 -0.379,-0.713 -0.84,-0.713 h -79.13 c -10.506,0 -16.424,-10.176 -10.123,-17.289 z"
   id="path4"
   inkscape:connector-curvature="0"
   style="fill:#d8d8d8;fill-opacity:1" />
	<path
   class="st0"
   d="m 319.309,341.2445 c 0,0.074 -0.379,0.136 -0.84,0.136 H 193.531 c -0.461,0 -0.836,-0.062 -0.836,-0.136 v -30.286 h 126.614 z"
   id="path6"
   inkscape:connector-curvature="0"
   style="fill:#d8d8d8;fill-opacity:1" />
	<path
   class="st0"
   d="m 319.309,375.5955 c 0,0.042 -0.379,0.07 -0.84,0.07 H 193.531 c -0.465,0 -0.84,-0.029 -0.84,-0.07 v -15.142 h 126.618 z"
   id="path8"
   inkscape:connector-curvature="0"
   style="fill:#d8d8d8;fill-opacity:1" />
	<path
   class="st0"
   d="m 192.695,286.3305 v -30.286 h 126.614 v 30.286 c 0,0.074 -0.379,0.14 -0.84,0.14 H 193.531 c -0.461,0 -0.836,-0.066 -0.836,-0.14 z"
   id="path10"
   inkscape:connector-curvature="0"
   style="fill:#d8d8d8;fill-opacity:1" />
	<path
   class="st0"
   d="m 508.25,377.54 h -39.034 c -8.866,0 -16.053,7.187 -16.053,16.054 v 57.538 c 0,1.598 -1.294,2.891 -2.891,2.891 H 61.728 c -1.598,0 -2.891,-1.294 -2.891,-2.891 v -57.538 c 0,-8.866 -7.186,-16.054 -16.049,-16.054 H 3.754 c -1.598,0 -2.895,1.298 -2.895,2.891 v 128.678 c 0,1.594 1.298,2.891 2.895,2.891 H 508.25 c 1.598,0 2.891,-1.298 2.891,-2.891 V 380.431 c 0,-1.593 -1.293,-2.891 -2.891,-2.891 z"
   id="path12"
   inkscape:connector-curvature="0"
   style="fill:#d8d8d8;fill-opacity:1" />
</g>
</svg>