<?xml version="1.0" encoding="UTF-8" standalone="no"?>
<!--?xml version="1.0" encoding="utf-8"?-->

<!-- Generator: Adobe Illustrator 18.1.1, SVG Export Plug-In . SVG Version: 6.00 Build 0)  -->

<svg
   xmlns:dc="http://purl.org/dc/elements/1.1/"
   xmlns:cc="http://creativecommons.org/ns#"
   xmlns:rdf="http://www.w3.org/1999/02/22-rdf-syntax-ns#"
   xmlns:svg="http://www.w3.org/2000/svg"
   xmlns="http://www.w3.org/2000/svg"
   xmlns:sodipodi="http://sodipodi.sourceforge.net/DTD/sodipodi-0.dtd"
   xmlns:inkscape="http://www.inkscape.org/namespaces/inkscape"
   version="1.1"
   id="_x31_0"
   x="0px"
   y="0px"
   viewBox="0 0 512 512"
   style="width: 32px; height: 32px; opacity: 1;"
   xml:space="preserve"
   sodipodi:docname="battery_low.svg"
   inkscape:version="0.92.2 2405546, 2018-03-11"><metadata
   id="metadata15"><rdf:RDF><cc:Work
       rdf:about=""><dc:format>image/svg+xml</dc:format><dc:type
         rdf:resource="http://purl.org/dc/dcmitype/StillImage" /></cc:Work></rdf:RDF></metadata><defs
   id="defs13" /><sodipodi:namedview
   pagecolor="#ffffff"
   bordercolor="#666666"
   borderopacity="1"
   objecttolerance="10"
   gridtolerance="10"
   guidetolerance="10"
   inkscape:pageopacity="0"
   inkscape:pageshadow="2"
   inkscape:window-width="926"
   inkscape:window-height="990"
   id="namedview11"
   showgrid="false"
   inkscape:zoom="0.4609375"
   inkscape:cx="-60.745763"
   inkscape:cy="256"
   inkscape:window-x="20"
   inkscape:window-y="50"
   inkscape:window-maximized="0"
   inkscape:current-layer="_x31_0" />
<style
   type="text/css"
   id="style2">
	.st0{fill:#374149;}
</style>
<g
   id="g8"
   transform="matrix(0.71186441,0,0,0.71186441,73.762568,73.762712)"
   style="fill:#131822;fill-opacity:1">
	<path
   class="st0"
   d="m 363.324,39.32 h -43.07 V 14.367 C 320.254,6.465 313.789,0 305.887,0 h -99.778 c -7.902,0 -14.363,6.465 -14.363,14.367 V 39.32 h -43.074 c -32.782,0 -59.45,26.668 -59.45,59.45 v 353.78 c 0,32.782 26.668,59.45 59.45,59.45 h 214.652 c 32.782,0 59.453,-26.668 59.453,-59.45 V 98.77 c 0,-32.782 -26.671,-59.45 -59.453,-59.45 z M 140.723,98.77 c 0,-4.371 3.578,-7.95 7.95,-7.95 h 214.652 c 4.375,0 7.953,3.578 7.953,7.95 v 353.78 c 0,4.371 -3.578,7.95 -7.953,7.95 H 148.672 c -4.371,0 -7.95,-3.578 -7.95,-7.95 V 98.77 Z"
   id="path4"
   inkscape:connector-curvature="0"
   style="fill:#131822;fill-opacity:1" />
	<polygon
   class="st0"
   points="179.465,421.578 332.536,421.578 332.536,341.469 180.09,341.469 179.621,341.465 179.621,341.469 179.465,341.469 179.465,421.176 179.465,421.418 "
   id="polygon6"
   style="fill:#131822;fill-opacity:1" />
</g>
</svg>