<?xml version="1.0" encoding="UTF-8" standalone="no"?>
<!--?xml version="1.0" encoding="utf-8"?-->

<!-- Generator: Adobe Illustrator 18.1.1, SVG Export Plug-In . SVG Version: 6.00 Build 0)  -->

<svg
   xmlns:dc="http://purl.org/dc/elements/1.1/"
   xmlns:cc="http://creativecommons.org/ns#"
   xmlns:rdf="http://www.w3.org/1999/02/22-rdf-syntax-ns#"
   xmlns:svg="http://www.w3.org/2000/svg"
   xmlns="http://www.w3.org/2000/svg"
   xmlns:sodipodi="http://sodipodi.sourceforge.net/DTD/sodipodi-0.dtd"
   xmlns:inkscape="http://www.inkscape.org/namespaces/inkscape"
   version="1.1"
   id="_x31_0"
   x="0px"
   y="0px"
   viewBox="0 0 512 512"
   style="width: 32px; height: 32px; opacity: 1;"
   xml:space="preserve"
   sodipodi:docname="battery_empty.svg"
   inkscape:version="0.92.2 2405546, 2018-03-11"><metadata
   id="metadata15"><rdf:RDF><cc:Work
       rdf:about=""><dc:format>image/svg+xml</dc:format><dc:type
         rdf:resource="http://purl.org/dc/dcmitype/StillImage" /><dc:title /></cc:Work></rdf:RDF></metadata><defs
   id="defs13" /><sodipodi:namedview
   pagecolor="#ffffff"
   bordercolor="#666666"
   borderopacity="1"
   objecttolerance="10"
   gridtolerance="10"
   guidetolerance="10"
   inkscape:pageopacity="0"
   inkscape:pageshadow="2"
   inkscape:window-width="926"
   inkscape:window-height="990"
   id="namedview11"
   showgrid="false"
   inkscape:zoom="0.4609375"
   inkscape:cx="4.3389814"
   inkscape:cy="212.61017"
   inkscape:window-x="20"
   inkscape:window-y="50"
   inkscape:window-maximized="0"
   inkscape:current-layer="_x31_0" />
<style
   type="text/css"
   id="style2">
	.st0{fill:#374149;}
</style>
<g
   id="g8"
   style="fill:#131822;fill-opacity:1">
	<path
   class="st0"
   d="m 328.76187,109.09831 h -29.2 V 92.181017 c 0,-5.357288 -4.38305,-9.740339 -9.74034,-9.740339 h -67.6461 c -5.35729,0 -9.73762,4.383051 -9.73762,9.740339 v 16.917293 h -29.20272 c -22.22508,0 -40.30508,18.08 -40.30508,40.30508 v 239.85085 c 0,22.22508 18.08,40.30508 40.30508,40.30508 h 145.52678 c 22.22509,0 40.30712,-18.08 40.30712,-40.30508 V 149.40339 c 0,-22.22508 -18.08203,-40.30508 -40.30712,-40.30508 z m -150.91593,40.30508 c 0,-2.96339 2.42576,-5.38983 5.38983,-5.38983 h 145.52678 c 2.9661,0 5.39187,2.42576 5.39187,5.38983 v 239.85085 c 0,2.96339 -2.42577,5.38983 -5.39187,5.38983 H 183.23509 c -2.96339,0 -5.38983,-2.42576 -5.38983,-5.38983 V 149.40339 Z"
   id="path4"
   inkscape:connector-curvature="0"
   style="fill:#131822;stroke-width:0.67796612;fill-opacity:1" />
	<polygon
   class="st0"
   points="332.536,341.469 180.09,341.469 179.621,341.465 179.621,341.469 179.465,341.469 179.465,421.176 179.465,421.418 179.465,421.578 332.536,421.578 "
   id="polygon6"
   transform="matrix(0.6779661,0,0,0.09045927,82.440517,330.12063)"
   style="fill:#131822;fill-opacity:1" />
</g>
</svg>