<?xml version="1.0" encoding="UTF-8" standalone="no"?>
<!--?xml version="1.0" encoding="utf-8"?-->

<!-- Generator: Adobe Illustrator 18.0.0, SVG Export Plug-In . SVG Version: 6.00 Build 0)  -->

<svg
   xmlns:dc="http://purl.org/dc/elements/1.1/"
   xmlns:cc="http://creativecommons.org/ns#"
   xmlns:rdf="http://www.w3.org/1999/02/22-rdf-syntax-ns#"
   xmlns:svg="http://www.w3.org/2000/svg"
   xmlns="http://www.w3.org/2000/svg"
   xmlns:sodipodi="http://sodipodi.sourceforge.net/DTD/sodipodi-0.dtd"
   xmlns:inkscape="http://www.inkscape.org/namespaces/inkscape"
   version="1.1"
   id="_x31_0"
   x="0px"
   y="0px"
   viewBox="0 0 512 512"
   style="width: 32px; height: 32px; opacity: 1;"
   xml:space="preserve"
   sodipodi:docname="calendar.svg"
   inkscape:version="0.92.2 2405546, 2018-03-11"><metadata
   id="metadata25"><rdf:RDF><cc:Work
       rdf:about=""><dc:format>image/svg+xml</dc:format><dc:type
         rdf:resource="http://purl.org/dc/dcmitype/StillImage" /></cc:Work></rdf:RDF></metadata><defs
   id="defs23" /><sodipodi:namedview
   pagecolor="#ffffff"
   bordercolor="#666666"
   borderopacity="1"
   objecttolerance="10"
   gridtolerance="10"
   guidetolerance="10"
   inkscape:pageopacity="0"
   inkscape:pageshadow="2"
   inkscape:window-width="926"
   inkscape:window-height="990"
   id="namedview21"
   showgrid="false"
   inkscape:zoom="0.4609375"
   inkscape:cx="218.0339"
   inkscape:cy="256"
   inkscape:window-x="20"
   inkscape:window-y="50"
   inkscape:window-maximized="0"
   inkscape:current-layer="_x31_0" />
<style
   type="text/css"
   id="style2">
	.st0{fill:#374149;}
</style>
<g
   id="g18"
   transform="matrix(0.72881356,0,0,0.72881356,69.423593,69.423729)">
	<path
   class="st0"
   d="m 418.099,80.442 c -0.828,-0.742 -1.515,-1.629 -2.301,-2.414 -1.465,-1.48 -2.976,-2.918 -4.273,-4.543 -0.219,-0.277 -0.379,-0.598 -0.594,-0.878 -1.703,-2.215 -3.301,-4.508 -4.668,-6.95 -0.742,-1.328 -1.273,-2.777 -1.91,-4.168 -0.664,-1.441 -1.426,-2.828 -1.969,-4.324 -2.157,-6.008 -3.332,-12.477 -3.332,-19.218 0,-7.715 1.578,-15.176 4.426,-21.883 0,-0.125 0,-0.191 0.062,-0.25 0.898,-2.696 2.106,-5.184 3.461,-7.602 0.266,-0.454 0.469,-0.91 0.762,-1.367 -0.007,0 -0.019,0 -0.027,0 0.016,-0.027 0.027,-0.055 0.043,-0.078 -1.836,-0.316 -3.668,-0.442 -5.566,-0.442 H 58.619 c -22.641,0 -41.11,18.465 -41.11,41.106 0,15.371 8.539,28.778 21.062,35.859 v 426.317 h 404.75 V 93.473 c -8.778,-1.992 -16.696,-6.122 -23.41,-11.649 -0.581,-0.488 -1.245,-0.878 -1.812,-1.382 z M 405.377,471.66 H 78.439 76.517 V 88.539 h 325.695 c 1.039,0 2.023,-0.062 3.058,-0.184 0.035,-0.004 0.066,-0.004 0.106,-0.004 v 381.051 2.258 z"
   style="fill:#374149;fill-opacity:1"
   id="path4"
   inkscape:connector-curvature="0" />
	<path
   class="st0"
   d="M 493.31,31.39 C 490.201,13.562 474.686,0 455.97,0 c -20.957,0 -37.945,16.992 -37.945,37.946 0,20.953 16.988,37.945 37.945,37.945 2.016,0 3.977,-0.222 5.91,-0.531 0.137,-0.015 0.274,-0.015 0.414,-0.031 V 512 l 32.196,-44.008 c 0,0 0,-416.586 0,-436.109 0,-0.207 -0.457,-0.367 -1.18,-0.493 z"
   style="fill:#374149;fill-opacity:1"
   id="path6"
   inkscape:connector-curvature="0" />
	<path
   class="st0"
   d="m 236.298,283.95 h -38.722 l -25.473,-0.055 46.446,-51.164 c 2.801,-3.106 5.332,-6.019 7.59,-8.758 2.258,-2.734 4.125,-5.504 5.606,-8.313 1.481,-2.809 2.61,-5.73 3.39,-8.758 0.778,-3.027 1.164,-6.465 1.164,-10.313 0,-7.09 -1.246,-13.484 -3.734,-19.175 -2.492,-5.692 -5.957,-10.497 -10.398,-14.41 -4.438,-3.918 -9.773,-6.95 -16,-9.09 -6.234,-2.145 -13.007,-3.215 -20.328,-3.215 -7.164,0 -13.824,1.031 -19.973,3.102 -6.156,2.074 -11.527,5.098 -16.121,9.09 -4.594,3.993 -8.176,8.832 -10.746,14.524 -2.519,5.582 -3.785,11.922 -3.836,18.992 0,0.11 -0.015,0.214 -0.019,0.328 h 0.004 c 0,0.027 -0.004,0.05 -0.004,0.078 h 30.371 c 0,-3.84 0.586,-7.055 1.754,-9.641 1.168,-2.586 2.723,-4.66 4.672,-6.211 1.946,-1.554 4.125,-2.66 6.543,-3.328 2.41,-0.664 4.863,-0.996 7.355,-0.996 6.543,0 11.527,1.813 14.954,5.434 3.426,3.625 5.14,8.386 5.14,14.297 0,3.699 -0.664,6.953 -1.988,9.758 -1.324,2.809 -3.543,5.914 -6.656,9.313 l -62.145,68.512 v 25.937 H 236.3 V 283.95 Z"
   style="fill:#37414b;fill-opacity:1"
   id="path8"
   inkscape:connector-curvature="0" />
	<polygon
   class="st0"
   points="272.279,198.922 272.228,210.942 272.279,210.898 272.279,211.004 293.01,193.906 306.158,183.133 306.158,309.035 306.158,309.805 306.158,309.805 306.158,309.886 336.529,309.886 336.529,152.027 306.158,152.027 272.279,179.961 "
   style="fill:#374149;fill-opacity:1"
   id="polygon10" />
	<polygon
   class="st0"
   points="201.447,381.785 197.275,397.317 186.775,363.367 178.35,363.367 172.619,381.894 167.779,397.317 158.893,363.367 149.69,363.367 147.217,363.344 147.225,363.367 147.142,363.367 162.541,417.398 171.943,417.398 177.798,399.324 182.595,384.718 193.182,417.398 202.584,417.398 214.709,375.074 218.064,363.446 218.041,363.446 218.064,363.367 206.31,363.367 "
   style="fill:#374149;fill-opacity:1"
   id="polygon12" />
	<polygon
   class="st0"
   points="233.385,417.398 271.393,417.398 271.393,407.988 244.646,407.988 244.646,394.859 267.424,394.859 267.424,385.45 244.705,385.45 244.646,385.45 244.646,372.774 271.393,372.774 271.393,363.367 233.385,363.367 "
   style="fill:#374149;fill-opacity:1"
   id="polygon14" />
	<path
   class="st0"
   d="m 331.935,379.187 c -0.214,-1.542 -0.578,-2.957 -1.094,-4.25 -0.515,-1.289 -1.203,-2.516 -2.066,-3.68 -2.054,-2.734 -4.484,-4.73 -7.297,-5.996 -2.809,-1.262 -6.187,-1.894 -10.129,-1.894 h -20.828 v 54.031 h 20.828 c 3.942,0 7.32,-0.633 10.129,-1.894 2.813,-1.266 5.242,-3.266 7.297,-5.996 0.863,-1.164 1.551,-2.391 2.066,-3.684 0.516,-1.289 0.879,-2.703 1.094,-4.246 0.219,-1.547 0.348,-3.238 0.406,-5.086 0.051,-1.843 0.078,-3.882 0.078,-6.109 0,-2.227 -0.027,-4.262 -0.078,-6.114 -0.058,-1.843 -0.187,-3.539 -0.406,-5.082 z m -11.871,23.415 c -0.301,0.758 -0.718,1.438 -1.258,2.047 -1.894,2.226 -4.703,3.339 -8.43,3.339 h -8.594 v -35.214 h 8.594 c 3.726,0 6.535,1.117 8.43,3.343 0.539,0.602 0.957,1.286 1.258,2.047 0.297,0.758 0.524,1.68 0.688,2.77 0.16,1.09 0.27,2.406 0.324,3.946 0.05,1.542 0.082,3.378 0.082,5.504 0,2.125 -0.032,3.957 -0.082,5.5 -0.054,1.546 -0.164,2.859 -0.324,3.949 -0.164,1.085 -0.391,2.011 -0.688,2.769 z"
   style="fill:#374149;fill-opacity:1"
   id="path16"
   inkscape:connector-curvature="0" />
</g>
</svg>