<?xml version="1.0" encoding="UTF-8" standalone="no"?>
<!--?xml version="1.0" encoding="utf-8"?-->

<!-- Generator: Adobe Illustrator 19.1.1, SVG Export Plug-In . SVG Version: 6.00 Build 0)  -->

<svg
   xmlns:dc="http://purl.org/dc/elements/1.1/"
   xmlns:cc="http://creativecommons.org/ns#"
   xmlns:rdf="http://www.w3.org/1999/02/22-rdf-syntax-ns#"
   xmlns:svg="http://www.w3.org/2000/svg"
   xmlns="http://www.w3.org/2000/svg"
   xmlns:sodipodi="http://sodipodi.sourceforge.net/DTD/sodipodi-0.dtd"
   xmlns:inkscape="http://www.inkscape.org/namespaces/inkscape"
   version="1.1"
   id="_x31_0"
   x="0px"
   y="0px"
   viewBox="0 0 512 512"
   style="width: 32px; height: 32px; opacity: 1;"
   xml:space="preserve"
   sodipodi:docname="cpu.svg"
   inkscape:version="0.92.2 2405546, 2018-03-11"><metadata
   id="metadata47"><rdf:RDF><cc:Work
       rdf:about=""><dc:format>image/svg+xml</dc:format><dc:type
         rdf:resource="http://purl.org/dc/dcmitype/StillImage" /></cc:Work></rdf:RDF></metadata><defs
   id="defs45" /><sodipodi:namedview
   pagecolor="#ffffff"
   bordercolor="#666666"
   borderopacity="1"
   objecttolerance="10"
   gridtolerance="10"
   guidetolerance="10"
   inkscape:pageopacity="0"
   inkscape:pageshadow="2"
   inkscape:window-width="926"
   inkscape:window-height="476"
   id="namedview43"
   showgrid="false"
   inkscape:zoom="0.4609375"
   inkscape:cx="-236.12277"
   inkscape:cy="256"
   inkscape:window-x="970"
   inkscape:window-y="48"
   inkscape:window-maximized="0"
   inkscape:current-layer="_x31_0" />
<style
   type="text/css"
   id="style2">
	.st0{fill:#374149;}
</style>
<g
   id="g40"
   transform="matrix(0.70338983,0,0,0.70338983,75.932203,75.932203)"
   style="fill:#131822;fill-opacity:1">
	<path
   class="st0"
   d="M 339.591,163.975 H 172.409 c -4.66,0 -8.434,3.774 -8.434,8.434 v 167.182 c 0,4.66 3.774,8.434 8.434,8.434 h 167.182 c 4.66,0 8.434,-3.774 8.434,-8.434 V 172.409 c 0,-4.66 -3.774,-8.434 -8.434,-8.434 z m -36.214,44.648 -94.754,94.75 c -4.98,4.98 -13.41,1.449 -13.41,-5.535 v -94.757 c 0,-4.336 3.531,-7.867 7.867,-7.867 h 94.757 c 6.985,0 10.52,8.429 5.54,13.409 z"
   id="path4"
   inkscape:connector-curvature="0"
   style="fill:#131822;fill-opacity:1" />
	<path
   class="st0"
   d="m 427.762,407.364 v -302.81 h 19.918 l 1.524,0.012 c 0,-0.004 0,-0.008 0,-0.012 h 0.16 c -1.606,-21.105 -18.051,-37.89 -38.894,-40.429 -0.988,-0.126 -1.934,-0.387 -2.942,-0.446 v 0.023 c -0.054,0 -0.106,-0.019 -0.16,-0.023 V 84.237 H 104.632 V 64.789 l 0.008,-0.946 h -0.008 v -0.164 c -21.086,1.062 -38.129,16.878 -41.39,37.305 -0.187,1.14 -0.508,2.238 -0.606,3.41 h 0.027 c -0.003,0.055 -0.023,0.106 -0.027,0.16 h 21.602 v 302.049 0.762 H 64.195 l -1.399,-0.008 c 0,0 0,0.004 0,0.008 h -0.16 c 1.61,21.211 18.094,38.015 38.973,40.519 0.961,0.121 1.882,0.379 2.863,0.434 v -0.019 c 0.054,0.004 0.106,0.019 0.16,0.023 v -20.558 h 301.97 0.766 v 20.558 c 21.109,-1.066 38.164,-16.914 41.398,-37.438 0.183,-1.125 0.5,-2.206 0.598,-3.355 h -0.027 c 0.003,-0.058 0.023,-0.11 0.027,-0.164 H 427.762 Z M 364.083,172.409 v 167.182 c 0,13.492 -11,24.496 -24.492,24.496 H 172.409 c -13.492,0 -24.492,-11.004 -24.492,-24.496 V 172.409 c 0,-13.492 11,-24.496 24.492,-24.496 h 167.182 c 13.492,0 24.492,11.004 24.492,24.496 z"
   id="path6"
   inkscape:connector-curvature="0"
   style="fill:#131822;fill-opacity:1" />
	<path
   class="st0"
   d="m 120.694,68.019 v 0.16 h 52.675 v -4.66 -20.394 h -11.965 c -2.246,0 -4.015,-1.77 -4.015,-4.016 V 0 h -20.797 v 39.109 c 0,2.246 -1.766,4.016 -4.016,4.016 h -11.882 v 20.394 4.484 0.016 z"
   id="path8"
   inkscape:connector-curvature="0"
   style="fill:#131822;fill-opacity:1" />
	<path
   class="st0"
   d="M 246.045,63.519 V 43.125 h -11.969 c -2.246,0 -4.011,-1.77 -4.011,-4.016 V 0 h -20.718 v 39.109 c 0,2.246 -1.848,4.016 -4.098,4.016 h -11.962 v 20.394 4.66 h 52.758 v -4.66 z"
   id="path10"
   inkscape:connector-curvature="0"
   style="fill:#131822;fill-opacity:1" />
	<path
   class="st0"
   d="M 318.634,63.519 V 43.125 h -11.883 c -2.25,0 -4.015,-1.77 -4.015,-4.016 V 0 h -20.801 v 39.109 c 0,2.246 -1.766,4.016 -4.011,4.016 h -11.965 v 20.394 4.66 h 52.675 v -4.66 z"
   id="path12"
   inkscape:connector-curvature="0"
   style="fill:#131822;fill-opacity:1" />
	<path
   class="st0"
   d="M 391.306,63.519 V 43.125 h -11.965 c -2.168,0 -4.015,-1.77 -4.015,-4.016 V 0 H 354.61 v 39.109 c 0,2.246 -1.77,4.016 -4.015,4.016 H 338.63 v 20.394 4.66 h 52.675 v -4.66 z"
   id="path14"
   inkscape:connector-curvature="0"
   style="fill:#131822;fill-opacity:1" />
	<path
   class="st0"
   d="m 338.63,448.481 v 20.313 h 11.965 c 2.246,0 4.015,1.847 4.015,4.098 V 512 h 20.797 v -39.109 c 0,-2.25 1.766,-4.098 4.016,-4.098 h 11.652 0.07 v 0 h 0.16 V 448.48 443.82 H 338.63 Z"
   id="path16"
   inkscape:connector-curvature="0"
   style="fill:#131822;fill-opacity:1" />
	<path
   class="st0"
   d="m 265.959,448.481 v 20.313 h 11.965 c 2.246,0 4.011,1.847 4.011,4.098 V 512 h 20.718 v -39.109 c 0,-2.25 1.848,-4.098 4.098,-4.098 h 11.653 0.07 v 0 h 0.16 v -20.313 -4.66 h -52.675 v 4.661 z"
   id="path18"
   inkscape:connector-curvature="0"
   style="fill:#131822;fill-opacity:1" />
	<path
   class="st0"
   d="m 193.287,448.481 v 20.313 h 11.962 c 2.25,0 4.015,1.847 4.015,4.098 V 512 h 20.801 v -39.109 c 0,-2.25 1.766,-4.098 4.011,-4.098 h 11.734 0.07 v 0 h 0.164 v -20.313 -4.66 h -52.758 v 4.661 z"
   id="path20"
   inkscape:connector-curvature="0"
   style="fill:#131822;fill-opacity:1" />
	<path
   class="st0"
   d="m 120.694,448.481 v 20.094 0.062 0 0.157 h 11.965 c 2.168,0 4.015,1.847 4.015,4.098 V 512 h 20.637 v -39.109 c 0,-2.25 1.848,-4.098 4.094,-4.098 h 11.734 0.07 v 0 h 0.16 v -20.313 -4.66 h -52.675 v 4.661 z"
   id="path22"
   inkscape:connector-curvature="0"
   style="fill:#131822;fill-opacity:1" />
	<path
   class="st0"
   d="m 472.891,136.593 c -2.246,0 -4.012,-1.766 -4.012,-4.016 v -11.965 h -19.355 -5.699 v 52.762 h 5.699 19.355 v -11.969 c 0,-2.25 1.766,-4.015 4.012,-4.015 H 512 v -20.797 h -39.109 z"
   id="path24"
   inkscape:connector-curvature="0"
   style="fill:#131822;fill-opacity:1" />
	<path
   class="st0"
   d="m 468.879,205.249 v -11.965 h -19.355 -5.699 v 52.675 h 5.699 19.355 v -11.883 c 0,-2.246 1.766,-4.015 4.012,-4.015 H 512 v -20.797 h -39.109 c -2.246,0 -4.012,-1.766 -4.012,-4.015 z"
   id="path26"
   inkscape:connector-curvature="0"
   style="fill:#131822;fill-opacity:1" />
	<path
   class="st0"
   d="m 468.879,277.92 v -11.961 h -19.355 -5.523 -0.016 v 0 h -0.16 v 52.675 h 5.699 19.355 v -11.883 c 0,-2.25 1.766,-4.098 4.012,-4.098 h 38.71 0.238 v 0 H 512 v -20.718 h -39.109 c -2.246,0 -4.012,-1.765 -4.012,-4.015 z"
   id="path28"
   inkscape:connector-curvature="0"
   style="fill:#131822;fill-opacity:1" />
	<path
   class="st0"
   d="m 468.879,350.595 v -11.969 h -19.355 -5.699 v 52.679 h 5.699 19.355 V 379.34 c 0,-2.25 1.766,-4.012 4.012,-4.012 H 512 V 354.61 h -39.109 c -2.246,0 -4.012,-1.769 -4.012,-4.015 z"
   id="path30"
   inkscape:connector-curvature="0"
   style="fill:#131822;fill-opacity:1" />
	<path
   class="st0"
   d="M 68.179,338.626 H 62.476 43.125 v 11.969 c 0,2.246 -1.77,4.015 -4.016,4.015 H 0.282 l -0.118,-0.004 v 0.004 h -0.16 v 20.496 L 0,375.169 h 0.004 v 0.16 h 39.105 c 2.246,0 4.016,1.844 4.016,4.09 v 11.886 h 19.351 5.703 v -52.679 z"
   id="path32"
   inkscape:connector-curvature="0"
   style="fill:#131822;fill-opacity:1" />
	<path
   class="st0"
   d="m 0.004,302.654 h 39.105 c 2.246,0 4.016,1.848 4.016,4.016 v 11.965 h 19.351 5.703 V 265.96 H 62.476 43.343 43.285 v 0 h -0.16 v 11.961 c 0,2.168 -1.77,4.015 -4.016,4.015 H 0.004 v 20.496 L 0,302.494 h 0.004 z"
   id="path34"
   inkscape:connector-curvature="0"
   style="fill:#131822;fill-opacity:1" />
	<path
   class="st0"
   d="m 0.004,230.061 h 39.105 c 2.246,0 4.016,1.77 4.016,4.015 v 11.883 h 19.351 5.703 V 193.284 H 62.476 43.125 v 11.965 c 0,2.25 -1.77,4.015 -4.016,4.015 H 0.282 0.164 v 0 h -0.16 v 20.574 L 0,229.901 h 0.004 z"
   id="path36"
   inkscape:connector-curvature="0"
   style="fill:#131822;fill-opacity:1" />
	<path
   class="st0"
   d="m 0.004,157.151 v 0.16 h 39.105 c 2.246,0 4.016,1.844 4.016,4.094 v 11.969 h 19.351 5.703 V 120.612 H 62.476 43.125 v 11.965 c 0,2.25 -1.77,4.094 -4.016,4.094 H 0.004 v 20.418 L 0,157.151 Z"
   id="path38"
   inkscape:connector-curvature="0"
   style="fill:#131822;fill-opacity:1" />
</g>
</svg>