<?xml version="1.0" encoding="UTF-8" standalone="no"?>
<!--?xml version="1.0" encoding="utf-8"?-->

<!-- Generator: Adobe Illustrator 19.1.1, SVG Export Plug-In . SVG Version: 6.00 Build 0)  -->

<svg
   xmlns:dc="http://purl.org/dc/elements/1.1/"
   xmlns:cc="http://creativecommons.org/ns#"
   xmlns:rdf="http://www.w3.org/1999/02/22-rdf-syntax-ns#"
   xmlns:svg="http://www.w3.org/2000/svg"
   xmlns="http://www.w3.org/2000/svg"
   xmlns:sodipodi="http://sodipodi.sourceforge.net/DTD/sodipodi-0.dtd"
   xmlns:inkscape="http://www.inkscape.org/namespaces/inkscape"
   version="1.1"
   id="_x31_0"
   x="0px"
   y="0px"
   viewBox="0 0 512 512"
   style="width: 32px; height: 32px; opacity: 1;"
   xml:space="preserve"
   sodipodi:docname="memory.svg"
   inkscape:version="0.92.2 2405546, 2018-03-11"><metadata
   id="metadata23"><rdf:RDF><cc:Work
       rdf:about=""><dc:format>image/svg+xml</dc:format><dc:type
         rdf:resource="http://purl.org/dc/dcmitype/StillImage" /></cc:Work></rdf:RDF></metadata><defs
   id="defs21" /><sodipodi:namedview
   pagecolor="#ffffff"
   bordercolor="#666666"
   borderopacity="1"
   objecttolerance="10"
   gridtolerance="10"
   guidetolerance="10"
   inkscape:pageopacity="0"
   inkscape:pageshadow="2"
   inkscape:window-width="926"
   inkscape:window-height="992"
   id="namedview19"
   showgrid="false"
   inkscape:zoom="0.4609375"
   inkscape:cx="-58.576271"
   inkscape:cy="256"
   inkscape:window-x="20"
   inkscape:window-y="48"
   inkscape:window-maximized="0"
   inkscape:current-layer="_x31_0" />
<style
   type="text/css"
   id="style2">
	.st0{fill:#374149;}
</style>
<g
   id="g16"
   transform="matrix(0.72033926,0,0,0.72033926,71.593045,71.59308)"
   style="fill:#6e6e6e;fill-opacity:1">
	<path
   class="st0"
   d="m 340.521,252.656 c 2.238,0.015 4.502,0.874 6.212,2.585 l 3.112,3.112 16.198,16.202 16.21,16.198 127.397,-127.403 -16.198,-16.198 6.774,-6.781 c 3.22,-3.22 3.212,-8.422 0.008,-11.63 L 469.909,98.42 469.843,98.35 v 0 l -0.113,-0.108 c -5.391,5.387 -14.146,5.387 -19.538,0 -2.698,-2.702 -4.041,-6.228 -4.041,-9.77 0,-3.538 1.354,-7.078 4.049,-9.765 l -33.805,-33.8 c -5.387,5.391 -14.134,5.395 -19.538,0 -2.698,-2.698 -4.041,-6.231 -4.041,-9.769 0,-3.538 1.355,-7.079 4.041,-9.766 L 373.892,2.41 c -3.198,-3.208 -8.403,-3.22 -11.623,0 L 4.748,359.932 c -3.205,3.197 -3.194,8.41 0.007,11.607 l 23.026,23.029 c 2.519,-2.032 5.585,-3.054 8.666,-3.054 3.534,0 7.067,1.343 9.765,4.041 5.043,5.05 5.372,13.02 0.987,18.43 l 33.916,33.913 c 2.52,-2.028 5.586,-3.05 8.662,-3.05 3.542,0 7.071,1.342 9.769,4.04 5.028,5.036 5.365,13.021 0.987,18.431 l 30.561,30.561 c 3.208,3.205 8.41,3.22 11.618,0.011 l 2.082,-2.09 L 161,512 369.831,303.176 353.626,286.97 l -16.198,-16.198 -3.116,-3.115 c -3.433,-3.434 -3.433,-8.995 0,-12.432 1.72,-1.706 3.956,-2.569 6.209,-2.569 z m 10.88,48.264 -17.726,17.726 -5.868,-5.856 -5.856,-5.86 17.727,-17.726 5.859,5.856 z m -202.117,178.685 16.294,-16.294 5.856,5.86 5.86,5.856 -16.294,16.294 -5.856,-5.86 z m 25.777,-83.895 -43.426,43.426 -69.814,-69.807 43.434,-43.434 z m 115.079,-56.961 5.856,5.852 5.86,5.864 -18.017,18.017 -5.856,-5.868 -5.86,-5.855 z m -24.91,24.902 5.856,5.86 5.868,5.856 -18.029,18.032 -5.859,-5.86 -5.86,-5.86 z m -49.827,49.831 5.86,5.852 5.856,5.868 -18.013,18.017 -5.86,-5.868 -5.86,-5.859 z m -13.195,36.63 -18.028,18.029 -5.86,-5.864 -5.856,-5.86 18.029,-18.028 5.859,5.864 z m 38.104,-61.539 5.86,5.86 5.856,5.859 -18.013,18.017 -5.867,-5.859 -5.853,-5.86 z m 17.669,-75.783 -69.621,-69.629 -0.186,-0.186 43.414,-43.414 69.814,69.814 z m -132.991,-6.626 43.434,-43.434 69.621,69.621 0.19,0.19 -43.36,43.356 -0.074,0.074 -69.621,-69.617 z m 172.043,25.684 18.029,-18.024 5.86,5.859 5.859,5.86 -18.032,18.028 -5.856,-5.867 z m 153.447,-130.007 -5.86,-5.863 -5.856,-5.86 16.658,-16.658 5.86,5.856 5.863,5.86 z m -82.363,58.923 16.658,-16.658 5.86,5.855 5.856,5.868 -16.654,16.654 -5.864,-5.86 z m 51.922,-28.474 -16.654,16.646 -5.856,-5.867 -5.86,-5.856 16.647,-16.646 5.859,5.856 z m 17.688,-29.42 5.859,5.864 -16.654,16.654 -5.864,-5.86 -5.86,-5.856 16.662,-16.662 z m 36.308,-24.584 -5.86,-5.856 -5.859,-5.867 14.939,-14.936 5.856,5.86 5.86,5.863 z m -29.721,-51.828 -43.426,43.434 -69.814,-69.814 43.434,-43.426 69.621,69.618 z m -172.175,32.557 43.426,-43.426 69.81,69.807 -43.356,43.356 -0.078,0.078 -69.621,-69.629 z"
   id="path4"
   inkscape:connector-curvature="0"
   style="fill:#6e6e6e;fill-opacity:1" />
	<polygon
   class="st0"
   points="147.543,411.614 134.883,366.082 105.96,337.158 105.897,337.096 105.897,337.096 105.785,336.984 72.918,369.855 131.109,428.047 "
   id="polygon6"
   style="fill:#6e6e6e;fill-opacity:1" />
	<polygon
   class="st0"
   points="198.048,302.917 168.95,273.819 136.087,306.69 194.274,364.882 210.708,348.448 "
   id="polygon8"
   style="fill:#6e6e6e;fill-opacity:1" />
	<polygon
   class="st0"
   points="273.888,285.268 261.216,239.752 232.115,210.654 199.26,243.51 257.447,301.702 "
   id="polygon10"
   style="fill:#6e6e6e;fill-opacity:1" />
	<polygon
   class="st0"
   points="357.849,201.299 345.189,155.768 316.099,126.678 283.41,159.367 283.34,159.437 283.34,159.437 283.224,159.55 341.416,217.741 "
   id="polygon12"
   style="fill:#6e6e6e;fill-opacity:1" />
	<polygon
   class="st0"
   points="342.275,100.494 342.275,100.494 342.163,100.607 400.354,158.794 416.792,142.361 404.128,96.833 375.146,67.851 375.146,67.851 375.146,67.851 375.038,67.739 342.348,100.417 "
   id="polygon14"
   style="fill:#6e6e6e;fill-opacity:1" />
</g>
</svg>