<?xml version="1.0" encoding="UTF-8" standalone="no"?>
<!--?xml version="1.0" encoding="utf-8"?-->

<!-- Generator: Adobe Illustrator 19.1.1, SVG Export Plug-In . SVG Version: 6.00 Build 0)  -->

<svg
   xmlns:dc="http://purl.org/dc/elements/1.1/"
   xmlns:cc="http://creativecommons.org/ns#"
   xmlns:rdf="http://www.w3.org/1999/02/22-rdf-syntax-ns#"
   xmlns:svg="http://www.w3.org/2000/svg"
   xmlns="http://www.w3.org/2000/svg"
   xmlns:sodipodi="http://sodipodi.sourceforge.net/DTD/sodipodi-0.dtd"
   xmlns:inkscape="http://www.inkscape.org/namespaces/inkscape"
   version="1.1"
   id="_x31_0"
   x="0px"
   y="0px"
   viewBox="0 0 512 512"
   style="width: 32px; height: 32px; opacity: 1;"
   xml:space="preserve"
   sodipodi:docname="sdd.svg"
   inkscape:version="0.92.2 2405546, 2018-03-11"><metadata
   id="metadata31"><rdf:RDF><cc:Work
       rdf:about=""><dc:format>image/svg+xml</dc:format><dc:type
         rdf:resource="http://purl.org/dc/dcmitype/StillImage" /></cc:Work></rdf:RDF></metadata><defs
   id="defs29" /><sodipodi:namedview
   pagecolor="#ffffff"
   bordercolor="#666666"
   borderopacity="1"
   objecttolerance="10"
   gridtolerance="10"
   guidetolerance="10"
   inkscape:pageopacity="0"
   inkscape:pageshadow="2"
   inkscape:window-width="926"
   inkscape:window-height="990"
   id="namedview27"
   showgrid="false"
   inkscape:zoom="0.4609375"
   inkscape:cx="-151.86441"
   inkscape:cy="256"
   inkscape:window-x="20"
   inkscape:window-y="50"
   inkscape:window-maximized="0"
   inkscape:current-layer="_x31_0" />
<style
   type="text/css"
   id="style2">
	.st0{fill:#374149;}
</style>
<g
   id="g24"
   transform="matrix(0.69195628,0,0,0.69195628,78.859039,78.859193)"
   style="fill:#131822;fill-opacity:1">
	<path
   class="st0"
   d="M 360.39,357.863 V 120.66 c 0,-9.23 -7.48,-16.71 -16.71,-16.71 H 168.254 c -9.23,0 -16.706,7.48 -16.706,16.71 v 237.203 c 0,9.23 7.476,16.707 16.706,16.707 H 343.68 c 9.23,0 16.71,-7.476 16.71,-16.707 z M 324.481,169.5 c 0,2.019 0,3.84 -0.066,5.523 -0.07,1.684 -0.203,3.234 -0.406,4.653 -0.199,1.343 -0.539,2.695 -1.008,3.836 -0.473,1.148 -1.078,2.293 -1.886,3.301 -1.887,2.496 -4.11,4.312 -6.738,5.457 -2.559,1.145 -5.726,1.754 -9.363,1.754 h -19.199 v -48.976 h 19.199 c 3.637,0 6.804,0.535 9.363,1.683 2.629,1.145 4.851,2.965 6.738,5.457 0.808,1.012 1.414,2.157 1.886,3.301 0.469,1.211 0.809,2.493 1.008,3.836 0.203,1.418 0.336,2.969 0.406,4.653 0.066,1.682 0.066,3.499 0.066,5.522 z m -49.313,0 c 0,2.019 0,3.84 -0.07,5.523 -0.066,1.684 -0.199,3.234 -0.402,4.653 -0.203,1.343 -0.539,2.695 -1.012,3.836 -0.468,1.148 -1.074,2.293 -1.886,3.301 -1.882,2.496 -4.11,4.312 -6.734,5.457 -2.562,1.145 -5.726,1.754 -9.363,1.754 h -19.203 v -48.976 h 19.203 c 3.637,0 6.801,0.535 9.363,1.683 2.625,1.145 4.852,2.965 6.734,5.457 0.813,1.012 1.418,2.157 1.886,3.301 0.473,1.211 0.809,2.493 1.012,3.836 0.203,1.418 0.336,2.969 0.402,4.653 0.07,1.682 0.07,3.499 0.07,5.522 z m -87.695,18.442 6.714,-6.18 c 1.754,1.547 3.641,2.625 5.863,3.234 2.223,0.606 4.512,0.875 6.942,0.875 3.164,0 5.523,-0.539 7.141,-1.551 1.617,-1.074 2.355,-2.625 2.355,-4.578 0,-1.684 -0.539,-3.035 -1.617,-4.043 -0.539,-0.473 -1.145,-0.813 -1.817,-1.012 -0.609,-0.27 -1.617,-0.472 -2.965,-0.675 l -6.402,-0.875 c -2.355,-0.336 -4.378,-0.809 -5.996,-1.481 -1.683,-0.672 -3.098,-1.48 -4.309,-2.558 -2.562,-2.226 -3.773,-5.461 -3.773,-9.633 0,-2.222 0.406,-4.18 1.21,-5.996 0.879,-1.82 2.09,-3.371 3.707,-4.718 1.618,-1.278 3.504,-2.29 5.793,-3.028 2.36,-0.746 4.918,-1.148 7.817,-1.148 3.703,0 6.871,0.473 9.633,1.347 2.527,0.801 4.801,2.168 6.93,3.93 0.195,0.176 0.402,0.278 0.594,0.466 l -6.511,5.98 c -1.688,-1.484 -3.438,-2.359 -5.391,-2.762 -1.953,-0.406 -3.84,-0.606 -5.523,-0.606 -2.832,0 -4.852,0.606 -6.199,1.817 -1.348,1.21 -2.019,2.695 -2.019,4.378 0,0.606 0.133,1.282 0.402,1.821 0.203,0.605 0.606,1.214 1.145,1.683 0.539,0.469 1.215,0.875 1.954,1.145 0.808,0.336 1.754,0.539 2.898,0.742 l 6.332,0.874 c 2.492,0.336 4.515,0.742 6.062,1.348 1.617,0.61 2.965,1.414 4.109,2.492 1.485,1.215 2.497,2.695 3.168,4.379 0.672,1.754 0.942,3.707 0.942,5.926 0,2.43 -0.473,4.519 -1.48,6.336 -1.012,1.816 -2.36,3.371 -4.11,4.648 -1.821,1.282 -3.906,2.223 -6.332,2.895 -2.426,0.675 -4.989,1.011 -7.817,1.011 -4.042,0 -7.613,-0.473 -10.777,-1.414 -2.906,-0.863 -5.555,-2.43 -8.008,-4.543 -0.216,-0.198 -0.455,-0.316 -0.665,-0.526 z M 343.68,361.098 H 168.254 c -1.754,0 -3.234,-1.481 -3.234,-3.234 v -129.55 h 181.895 v 129.55 c -0.001,1.753 -1.415,3.234 -3.235,3.234 z"
   id="path4"
   inkscape:connector-curvature="0"
   style="fill:#131822;fill-opacity:1" />
	<path
   class="st0"
   d="m 127.496,73.5 c -4.246,0 -7.746,3.438 -7.746,7.746 0,4.246 3.5,7.75 7.746,7.75 4.313,0 7.746,-3.504 7.746,-7.75 0,-4.308 -3.433,-7.746 -7.746,-7.746 z"
   id="path6"
   inkscape:connector-curvature="0"
   style="fill:#131822;fill-opacity:1" />
	<path
   class="st0"
   d="m 384.438,88.996 c 4.312,0 7.75,-3.504 7.75,-7.75 0,-4.309 -3.438,-7.746 -7.75,-7.746 -4.313,0 -7.746,3.438 -7.746,7.746 -0.001,4.246 3.433,7.75 7.746,7.75 z"
   id="path8"
   inkscape:connector-curvature="0"
   style="fill:#131822;fill-opacity:1" />
	<path
   class="st0"
   d="m 127.496,421.457 c -4.246,0 -7.746,3.438 -7.746,7.746 0,4.246 3.5,7.746 7.746,7.746 4.313,0 7.746,-3.5 7.746,-7.746 0,-4.309 -3.433,-7.746 -7.746,-7.746 z"
   id="path10"
   inkscape:connector-curvature="0"
   style="fill:#131822;fill-opacity:1" />
	<path
   class="st0"
   d="m 384.438,436.95 c 4.312,0 7.75,-3.5 7.75,-7.746 0,-4.309 -3.438,-7.746 -7.75,-7.746 -4.313,0 -7.746,3.438 -7.746,7.746 -0.001,4.246 3.433,7.746 7.746,7.746 z"
   id="path12"
   inkscape:connector-curvature="0"
   style="fill:#131822;fill-opacity:1" />
	<path
   class="st0"
   d="M 363.285,0 H 148.715 C 96.707,0 54.398,42.309 54.398,94.317 v 323.304 c 0,52.004 42.309,94.379 94.317,94.379 h 75.992 v -14.215 -14.617 h 23.578 V 497.785 512 h 29.039 v -14.215 -14.617 h 23.578 V 497.785 512 h 62.382 c 52.008,0 94.317,-42.375 94.317,-94.379 V 94.317 C 457.602,42.309 415.293,0 363.285,0 Z M 169.531,436.95 v 34.629 h -20.816 c -29.707,0 -53.895,-24.254 -53.895,-53.958 V 94.317 c 0,-29.707 24.188,-53.895 53.895,-53.895 h 214.57 c 29.707,0 53.895,24.188 53.895,53.895 v 323.304 c 0,29.703 -24.188,53.958 -53.895,53.958 H 342.469 V 436.95 Z"
   id="path14"
   inkscape:connector-curvature="0"
   style="fill:#131822;fill-opacity:1" />
	<path
   class="st0"
   d="m 264.39,160.946 c -0.137,-1.012 -0.34,-1.821 -0.609,-2.496 -0.27,-0.668 -0.672,-1.344 -1.211,-1.883 -1.684,-2.023 -4.313,-3.031 -7.75,-3.031 h -7.766 -0.023 v 0 h -0.16 v 31.578 0.195 0 0.16 h 7.949 c 3.438,0 6.066,-1.012 7.75,-3.035 0.539,-0.539 0.942,-1.145 1.211,-1.883 0.269,-0.675 0.472,-1.484 0.609,-2.492 0.133,-0.945 0.266,-2.16 0.336,-3.574 0,-1.414 0.066,-3.031 0.066,-4.984 0,-1.953 -0.066,-3.566 -0.066,-4.984 -0.07,-1.419 -0.203,-2.564 -0.336,-3.571 z"
   id="path16"
   inkscape:connector-curvature="0"
   style="fill:#131822;fill-opacity:1" />
	<path
   class="st0"
   d="m 313.703,160.946 c -0.137,-1.012 -0.34,-1.821 -0.61,-2.496 -0.266,-0.668 -0.672,-1.344 -1.211,-1.883 -1.683,-2.023 -4.312,-3.031 -7.746,-3.031 h -7.766 -0.027 v 0 h -0.157 v 31.676 0.098 0 0.16 h 7.95 c 3.434,0 6.062,-1.012 7.746,-3.035 0.539,-0.539 0.946,-1.145 1.211,-1.883 0.27,-0.675 0.473,-1.484 0.61,-2.492 0.133,-0.945 0.266,-2.16 0.266,-3.574 0.07,-1.414 0.137,-3.031 0.137,-4.984 0,-1.953 -0.066,-3.566 -0.137,-4.984 0,-1.42 -0.133,-2.565 -0.266,-3.572 z"
   id="path18"
   inkscape:connector-curvature="0"
   style="fill:#131822;fill-opacity:1" />
	<polygon
   class="st0"
   points="208.203,249.469 208.203,262.469 303.73,262.469 303.73,249.469 208.946,249.469 208.363,249.465 208.363,249.469 "
   id="polygon20"
   style="fill:#131822;fill-opacity:1" />
	<polygon
   class="st0"
   points="208.203,283.621 208.203,296.625 272.203,296.625 272.203,283.824 272.203,283.785 272.203,283.621 "
   id="polygon22"
   style="fill:#131822;fill-opacity:1" />
</g>
</svg>